<svg id="svg" xmlns="http://www.w3.org/2000/svg" xmlns:xlink="http://www.w3.org/1999/xlink" width="400" height="370.28571428571433" viewBox="0, 0, 400,370.28571428571433"><g id="svgg"><path id="path0" d="M182.857 52.004 C 167.551 59.650,165.928 83.090,179.994 93.336 L 185.973 97.692 179.701 125.989 C 168.941 174.527,165.119 188.690,163.738 185.143 C 156.910 167.601,146.003 137.683,141.850 125.103 L 136.744 109.635 143.801 103.043 C 162.253 85.807,144.569 55.348,120.000 62.049 C 97.990 68.053,97.056 102.828,118.712 110.047 C 121.843 111.091,120.150 144.585,115.052 182.424 L 113.725 192.276 94.607 163.652 L 75.489 135.027 81.173 128.894 C 95.584 113.345,83.320 89.143,61.030 89.143 C 33.384 89.143,29.005 131.087,56.120 136.173 C 65.481 137.929,64.095 133.143,73.090 194.790 C 78.965 235.060,80.000 248.977,80.000 287.732 L 80.000 333.312 88.571 334.677 C 136.075 342.242,265.567 342.225,302.286 334.648 L 308.571 333.351 308.551 289.533 C 308.524 233.598,321.892 137.143,329.670 137.143 C 351.720 137.143,360.223 101.946,340.698 91.496 C 314.295 77.366,292.653 107.550,311.121 132.747 C 313.374 135.820,279.804 192.000,275.715 192.000 C 275.293 192.000,273.734 177.857,272.249 160.571 C 270.765 143.286,268.980 124.934,268.284 119.791 C 267.093 110.989,267.440 110.264,274.188 107.469 C 291.138 100.448,292.434 72.751,276.195 64.582 C 249.799 51.303,225.921 80.528,245.394 102.279 L 253.074 110.857 238.847 150.646 L 224.619 190.436 220.704 172.361 C 218.551 162.419,213.910 141.497,210.391 125.866 L 203.993 97.446 211.711 90.167 C 232.670 70.400,208.918 38.985,182.857 52.004 M198.400 62.171 C 202.160 65.931,201.848 74.283,197.824 77.623 C 193.087 81.555,185.398 78.383,183.750 71.818 C 181.314 62.112,191.581 55.352,198.400 62.171 M132.571 77.714 C 134.310 80.962,134.310 83.609,132.571 86.857 C 128.254 94.925,114.286 91.433,114.286 82.286 C 114.286 73.139,128.254 69.647,132.571 77.714 M268.890 76.577 C 271.782 84.113,267.684 91.429,260.571 91.429 C 255.258 91.429,253.493 90.200,252.368 85.719 C 250.187 77.028,252.721 73.143,260.571 73.143 C 264.690 73.143,268.114 74.556,268.890 76.577 M64.150 100.652 C 71.047 104.343,70.148 116.089,62.827 117.926 C 52.215 120.589,46.111 109.644,53.878 101.878 C 58.127 97.628,58.432 97.592,64.150 100.652 M330.066 101.271 C 338.637 107.538,329.526 123.082,320.571 117.469 C 312.882 112.649,315.877 98.286,324.571 98.286 C 325.348 98.286,327.821 99.629,330.066 101.271 M194.286 177.143 L 194.286 226.286 182.591 226.286 C 171.860 226.286,170.998 225.892,172.142 221.518 C 172.828 218.896,177.774 196.782,183.133 172.375 C 188.492 147.969,193.193 128.000,193.581 128.000 C 193.969 128.000,194.286 150.114,194.286 177.143 M141.521 221.143 C 141.687 225.558,140.552 226.286,133.500 226.286 L 125.285 226.286 126.565 215.429 C 127.269 209.457,128.436 196.857,129.159 187.429 C 132.018 150.160,133.135 149.694,137.373 184.000 C 139.548 201.600,141.414 218.314,141.521 221.143 M249.966 192.898 L 245.946 226.286 237.431 226.286 L 228.917 226.286 240.417 191.864 C 254.336 150.203,255.096 150.285,249.966 192.898 M293.438 206.509 C 286.132 225.830,284.424 228.571,279.691 228.571 C 272.422 228.571,272.448 228.485,287.196 204.110 C 303.065 177.881,304.110 178.282,293.438 206.509 M95.854 206.805 C 104.132 228.358,104.156 228.571,98.329 228.571 C 93.416 228.571,93.145 227.843,88.306 201.585 C 84.569 181.308,86.601 182.714,95.854 206.805 M277.714 253.231 C 305.216 257.497,166.541 260.133,118.857 256.250 L 99.429 254.668 114.286 253.050 C 122.457 252.159,132.229 251.001,136.000 250.476 C 146.836 248.968,265.042 251.266,277.714 253.231 M263.581 282.701 C 273.253 283.578,278.020 284.837,276.152 286.022 C 272.322 288.451,119.652 288.165,112.000 285.714 C 105.409 283.603,101.528 284.146,145.143 281.079 C 170.818 279.273,235.547 280.160,263.581 282.701 M269.714 314.977 L 282.286 316.685 260.792 318.343 C 235.058 320.327,144.788 320.049,122.286 317.916 L 106.286 316.399 124.571 314.651 C 134.629 313.690,144.914 312.565,147.429 312.151 C 155.340 310.849,256.546 313.188,269.714 314.977 " stroke="none" fill="#000000" fill-rule="evenodd"></path></g></svg>