<svg id="svg" xmlns="http://www.w3.org/2000/svg" xmlns:xlink="http://www.w3.org/1999/xlink" width="400" height="432" viewBox="0, 0, 400,432"><g id="svgg"><path id="path0" d="M169.325 43.803 C 168.596 46.111,167.438 49.800,166.750 52.000 C 166.063 54.200,163.063 56.000,160.084 56.000 C 156.444 56.000,154.667 57.750,154.667 61.333 C 154.667 65.244,156.444 66.667,161.333 66.667 C 171.274 66.667,170.523 83.167,159.602 104.743 C 149.865 123.979,144.077 143.778,144.032 158.000 C 143.992 170.531,143.746 170.498,130.600 156.236 C 99.233 122.207,47.379 124.697,26.419 161.239 C 6.874 195.312,23.155 249.153,60.936 275.391 L 73.333 284.000 60.000 285.381 C 52.667 286.140,45.167 287.711,43.333 288.872 C 39.605 291.231,38.324 403.999,42.000 406.236 C 59.214 416.714,290.120 416.714,307.333 406.236 C 308.433 405.566,309.333 378.744,309.333 346.630 L 309.333 288.242 300.667 286.825 C 295.900 286.046,288.421 285.091,284.047 284.704 L 276.095 284.000 290.006 274.034 C 339.789 238.370,345.849 164.486,300.993 140.072 C 273.681 125.207,241.508 131.529,218.733 156.236 C 205.587 170.498,205.341 170.531,205.302 158.000 C 205.257 143.778,199.468 123.979,189.731 104.743 C 178.810 83.167,178.060 66.667,188.000 66.667 C 196.780 66.667,197.469 56.776,188.776 55.519 C 185.058 54.981,182.310 52.212,181.326 48.014 C 179.542 40.407,171.310 37.518,169.325 43.803 M176.000 190.222 C 176.000 291.336,174.866 292.610,161.130 206.932 C 155.004 168.718,162.468 112.000,173.623 112.000 C 174.961 112.000,176.000 146.204,176.000 190.222 M101.025 151.843 C 128.560 165.890,152.619 216.854,155.231 266.667 L 156.000 281.333 129.333 281.275 C 97.531 281.206,79.699 274.506,60.670 255.477 C 9.425 204.232,41.626 121.540,101.025 151.843 M297.785 154.039 C 325.999 174.129,318.414 231.687,283.788 260.256 C 264.107 276.493,250.011 281.130,220.000 281.238 L 193.333 281.333 194.102 266.667 C 198.499 182.804,253.807 122.724,297.785 154.039 M70.205 161.801 C 40.007 167.967,43.025 221.631,75.115 249.099 C 87.632 259.813,114.020 269.333,131.198 269.333 L 141.834 269.333 139.932 255.333 C 134.090 212.328,107.420 162.821,89.992 162.630 C 88.163 162.610,84.267 162.149,81.333 161.606 C 78.400 161.062,73.392 161.150,70.205 161.801 M260.250 162.749 C 237.742 169.562,215.568 209.935,209.401 255.333 L 207.500 269.333 218.136 269.333 C 235.313 269.333,261.701 259.813,274.218 249.099 C 315.105 214.101,304.626 149.318,260.250 162.749 M277.333 314.017 L 289.333 316.213 270.667 318.088 C 247.163 320.448,97.443 320.051,76.000 317.571 L 60.000 315.721 72.000 313.870 C 78.600 312.852,88.200 311.536,93.333 310.944 C 109.299 309.105,264.673 311.700,277.333 314.017 M248.000 346.863 C 264.867 348.428,279.615 350.632,280.773 351.761 C 284.040 354.943,180.146 357.388,121.637 355.506 C 56.354 353.406,51.026 350.225,105.333 345.771 C 131.732 343.606,220.195 344.284,248.000 346.863 M212.000 381.247 C 269.491 384.464,284.846 386.553,278.314 390.272 C 271.332 394.247,75.213 394.177,68.219 390.197 C 61.063 386.125,76.097 383.808,125.333 381.394 C 146.600 380.351,165.200 379.354,166.667 379.179 C 168.133 379.004,188.533 379.935,212.000 381.247 " stroke="none" fill="#000000" fill-rule="evenodd"></path></g></svg>