<svg id="svg" xmlns="http://www.w3.org/2000/svg" xmlns:xlink="http://www.w3.org/1999/xlink" width="400" height="361.53846153846155" viewBox="0, 0, 400,361.53846153846155"><g id="svgg"><path id="path0" d="M188.889 22.222 C 187.949 23.162,187.043 28.643,186.876 34.402 C 186.709 40.160,185.839 48.298,184.941 52.486 L 183.310 60.101 177.415 52.486 C 170.127 43.074,154.189 30.769,149.283 30.769 C 146.306 30.769,145.962 34.043,147.418 48.542 L 149.203 66.315 138.757 71.644 C 128.504 76.875,120.513 87.745,120.513 96.462 C 120.513 98.887,113.301 108.553,104.487 117.941 C 46.735 179.454,46.800 179.328,59.667 204.995 C 71.084 227.769,90.704 233.383,109.213 219.172 C 123.744 208.016,143.940 198.351,156.744 196.425 C 162.907 195.499,172.853 191.952,178.846 188.545 L 189.744 182.349 189.744 188.112 C 189.744 196.334,180.368 208.000,151.377 235.852 C 113.643 272.103,102.890 300.296,112.964 336.568 L 115.642 346.214 214.864 345.543 L 314.086 344.872 317.447 324.359 C 332.225 234.164,311.707 165.670,248.703 94.872 C 238.629 83.552,228.374 68.655,223.773 58.658 C 212.425 33.998,195.153 15.958,188.889 22.222 M173.110 100.054 C 175.062 103.211,159.161 110.256,150.082 110.256 C 143.120 110.256,140.574 101.644,146.795 99.134 C 152.703 96.750,171.474 97.406,173.110 100.054 M272.915 165.385 C 293.003 206.743,301.248 260.511,294.047 303.205 L 291.993 315.385 279.056 315.385 C 268.140 315.385,266.369 314.730,267.725 311.197 C 283.531 270.006,277.936 195.333,255.237 144.543 L 246.217 124.359 253.961 133.333 C 258.221 138.269,266.750 152.692,272.915 165.385 M94.872 176.671 C 94.872 181.319,78.554 189.597,75.078 186.712 C 69.535 182.112,71.342 179.890,82.692 177.349 C 88.686 176.006,93.878 174.785,94.231 174.634 C 94.583 174.483,94.872 175.400,94.872 176.671 " stroke="none" fill="#000000" fill-rule="evenodd"></path></g></svg>