<svg id="svg" xmlns="http://www.w3.org/2000/svg" xmlns:xlink="http://www.w3.org/1999/xlink" width="400" height="528.4671532846716" viewBox="0, 0, 400,528.4671532846716"><g id="svgg"><path id="path0" d="M179.078 70.259 C 161.418 79.000,152.396 101.489,160.485 116.604 C 162.834 120.992,160.314 124.257,145.419 136.120 C 80.804 187.581,71.786 258.175,120.850 328.467 C 124.427 333.592,123.893 337.880,116.485 363.504 C 111.842 379.562,108.040 394.249,108.036 396.141 C 108.028 400.138,134.894 410.770,151.855 413.482 C 178.435 417.732,164.022 422.325,110.949 426.516 L 71.533 429.628 56.150 444.827 L 40.768 460.026 45.001 474.092 C 50.689 492.994,61.814 509.159,76.407 519.730 C 93.284 531.956,98.449 530.995,114.558 512.625 L 128.385 496.857 115.341 489.213 C 103.270 482.139,96.350 474.325,96.350 467.767 C 96.350 466.288,104.959 464.274,115.480 463.292 C 140.889 460.919,165.240 449.622,182.316 432.285 L 196.105 418.286 209.047 432.122 C 225.149 449.337,249.836 460.871,275.761 463.292 C 286.282 464.274,294.891 466.288,294.891 467.767 C 294.891 474.325,287.971 482.139,275.900 489.213 L 262.855 496.857 276.683 512.625 C 293.047 531.285,298.386 532.136,315.798 518.855 C 331.442 506.923,340.367 493.920,346.051 474.781 L 350.442 459.995 335.075 444.838 L 319.708 429.681 280.292 426.471 C 222.360 421.754,214.491 418.503,245.504 412.097 C 265.990 407.866,283.212 400.369,283.212 395.683 C 283.212 393.904,279.828 380.776,275.692 366.510 C 265.891 332.702,265.845 333.739,277.901 316.788 C 319.042 258.947,306.254 184.072,247.245 137.299 L 230.760 124.233 232.544 109.054 C 236.361 76.582,207.950 55.967,179.078 70.259 M182.482 95.631 C 182.482 115.165,171.731 121.900,169.931 103.494 C 169.243 96.466,177.886 78.759,181.964 78.843 C 182.249 78.849,182.482 86.403,182.482 95.631 M204.982 169.984 L 205.839 191.063 219.645 190.205 C 238.706 189.021,245.255 191.576,245.255 200.197 C 245.255 207.041,244.516 207.299,224.890 207.299 L 204.524 207.299 203.722 254.745 L 202.920 302.190 195.620 302.190 L 188.321 302.190 187.519 254.745 L 186.717 207.299 166.351 207.299 C 146.725 207.299,145.985 207.041,145.985 200.197 C 145.985 191.576,152.534 189.021,171.596 190.205 L 185.401 191.063 186.259 169.984 L 187.117 148.905 195.620 148.905 L 204.124 148.905 204.982 169.984 M117.575 230.951 C 119.546 259.713,130.662 284.681,150.653 305.250 C 157.924 312.731,163.461 319.199,162.958 319.623 C 136.895 341.582,101.069 275.567,109.292 220.734 C 112.346 200.371,115.768 204.592,117.575 230.951 M162.080 361.314 C 160.923 372.153,158.471 381.987,156.631 383.167 C 152.769 385.643,131.387 386.189,131.387 383.812 C 131.387 373.889,141.714 344.583,145.572 343.558 C 163.187 338.874,164.343 340.118,162.080 361.314 M163.504 435.097 C 147.971 447.374,67.153 462.749,67.153 453.426 C 67.153 444.985,78.550 441.139,112.439 438.141 C 131.692 436.437,151.387 433.841,156.204 432.371 C 169.777 428.230,171.416 428.842,163.504 435.097 M233.133 431.990 C 238.488 433.525,258.845 436.250,278.369 438.044 C 312.506 441.181,324.088 445.041,324.088 453.284 C 324.088 462.535,243.113 447.250,227.737 435.097 C 219.341 428.460,219.835 428.176,233.133 431.990 " stroke="none" fill="#000000" fill-rule="evenodd"></path></g></svg>