<svg id="svg" version="1.1" xmlns="http://www.w3.org/2000/svg" xmlns:xlink="http://www.w3.org/1999/xlink" width="400" height="451.20000000000005" viewBox="0, 0, 400,451.20000000000005"><g id="svgg"><path id="path0" d="M299.200 25.166 C 297.880 25.533,280.960 46.348,261.600 71.422 C 242.240 96.496,223.293 120.970,219.495 125.809 L 212.591 134.607 202.843 120.504 C 164.152 64.521,148.718 48.995,136.368 53.630 C 91.591 70.438,60.800 97.720,60.800 120.587 L 60.800 129.302 101.600 176.219 C 124.040 202.023,142.400 223.614,142.400 224.197 C 142.400 224.781,113.615 258.929,78.433 300.081 C 22.370 365.658,14.575 375.416,15.351 379.052 C 20.597 403.618,41.959 427.200,58.966 427.200 C 72.286 427.200,118.636 384.982,172.729 323.578 C 189.671 304.347,194.643 299.587,196.126 301.178 C 197.163 302.290,213.250 325.880,231.877 353.600 C 250.504 381.320,266.752 404.225,267.982 404.500 C 275.236 406.121,302.251 390.393,317.434 375.711 L 326.868 366.588 325.949 358.825 C 324.680 348.111,307.914 309.402,283.258 260.261 L 262.517 218.922 310.650 161.434 L 358.782 103.945 353.686 89.173 C 338.060 43.874,317.744 20.008,299.200 25.166 " stroke="none" fill="#000000" fill-rule="evenodd"></path></g></svg>