<?xml version="1.0" encoding="UTF-8" standalone="no"?>
<svg
   id="svg"
   width="400"
   height="525.9842519685039"
   viewBox="0, 0, 400,525.9842519685039"
   version="1.1"
   sodipodi:docname="white-bishop-filled.svg"
   inkscape:version="1.2.2 (b0a8486541, 2022-12-01)"
   xmlns:inkscape="http://www.inkscape.org/namespaces/inkscape"
   xmlns:sodipodi="http://sodipodi.sourceforge.net/DTD/sodipodi-0.dtd"
   xmlns="http://www.w3.org/2000/svg"
   xmlns:svg="http://www.w3.org/2000/svg">
  <defs
     id="defs1137" />
  <sodipodi:namedview
     id="namedview1135"
     pagecolor="#ffffff"
     bordercolor="#000000"
     borderopacity="0.25"
     inkscape:showpageshadow="2"
     inkscape:pageopacity="0.0"
     inkscape:pagecheckerboard="0"
     inkscape:deskcolor="#d1d1d1"
     showgrid="false"
     inkscape:zoom="1.8973952"
     inkscape:cx="200.01105"
     inkscape:cy="262.99213"
     inkscape:window-width="2560"
     inkscape:window-height="1351"
     inkscape:window-x="2871"
     inkscape:window-y="-9"
     inkscape:window-maximized="1"
     inkscape:current-layer="svg" />
  <g
     id="svgg">
    <path
       id="path0"
       d="M158.804 34.285 C 145.976 42.108,140.419 56.164,142.664 75.116 L 144.448 90.178 127.324 103.842 C 61.551 156.325,48.248 233.852,93.682 299.900 L 105.061 316.443 97.743 343.261 C 84.422 392.078,84.627 392.447,129.921 401.122 C 162.096 407.285,144.429 413.541,83.473 417.571 L 48.837 419.862 31.623 436.404 L 14.409 452.945 19.747 469.880 C 28.600 497.963,54.693 525.701,72.441 525.895 C 84.831 526.031,110.804 494.770,102.253 490.013 C 93.237 484.997,71.271 463.112,73.258 461.125 C 74.200 460.183,85.386 457.984,98.115 456.238 C 128.677 452.047,144.426 444.712,165.347 424.925 L 182.658 408.553 196.135 423.025 C 212.515 440.615,236.963 452.336,265.787 456.418 C 295.687 460.652,296.571 467.644,269.233 483.665 C 251.870 493.841,251.843 493.074,270.187 511.142 C 288.089 528.775,294.207 529.429,312.286 515.639 C 347.455 488.815,354.523 458.199,330.699 435.890 L 314.234 420.472 274.440 416.980 C 213.777 411.655,198.991 406.518,231.503 402.062 C 244.216 400.320,277.165 388.396,277.165 385.537 C 277.165 384.939,272.813 368.857,267.492 349.799 L 257.820 315.149 267.340 303.244 C 318.059 239.823,298.179 142.884,224.404 93.874 C 218.025 89.637,217.670 88.133,220.877 78.933 C 232.812 44.697,191.023 14.638,158.804 34.285 M196.994 51.825 C 206.070 60.902,207.039 74.034,199.433 84.893 C 194.268 92.267,194.399 92.639,204.945 100.543 C 271.727 150.596,293.235 209.817,265.658 267.717 C 248.480 303.781,251.946 302.362,181.010 302.362 L 119.746 302.362 108.881 287.402 C 64.564 226.379,87.232 148.026,163.901 97.225 C 171.156 92.418,171.324 91.710,166.514 86.201 C 145.298 61.901,174.328 29.160,196.994 51.825 M173.228 139.948 L 173.228 163.780 151.181 163.780 C 129.764 163.780,129.134 164.004,129.134 171.654 C 129.134 179.300,129.769 179.528,151.103 179.528 L 173.072 179.528 173.938 230.709 L 174.803 281.890 182.677 281.890 L 190.551 281.890 191.417 230.709 L 192.282 179.528 212.676 179.528 C 232.331 179.528,233.071 179.242,233.071 171.654 C 233.071 164.068,232.327 163.780,212.736 163.780 L 192.402 163.780 191.477 140.945 C 190.573 118.638,190.351 118.087,181.890 117.114 L 173.228 116.117 173.228 139.948 M244.327 326.772 C 247.420 340.669,248.720 346.101,250.356 351.969 C 251.786 357.097,247.081 357.480,182.639 357.480 C 138.558 357.480,113.392 356.335,113.403 354.331 C 113.420 351.336,118.553 330.439,121.333 322.047 C 122.315 319.081,137.409 318.110,182.518 318.110 L 242.400 318.110 244.327 326.772 M217.777 371.838 C 281.654 378.366,257.567 389.058,179.528 388.814 C 89.685 388.535,87.635 373.405,176.832 368.922 C 181.412 368.692,199.837 370.004,217.777 371.838 M149.606 424.077 C 132.016 437.981,95.677 447.040,56.931 447.182 L 39.847 447.244 46.642 440.011 C 52.602 433.667,58.402 432.327,93.804 429.119 C 116.006 427.107,137.643 424.074,141.888 422.379 C 153.441 417.766,156.687 418.480,149.606 424.077 M234.394 425.072 C 241.462 426.618,260.709 428.848,277.165 430.027 C 306.071 432.099,321.260 437.134,321.260 444.642 C 321.260 456.067,227.504 438.389,215.479 424.696 C 209.537 417.930,209.538 417.862,215.496 420.045 C 218.822 421.264,227.326 423.526,234.394 425.072 M61.513 466.444 C 62.666 470.076,69.336 478.605,76.336 485.398 C 88.710 497.406,88.907 497.924,83.414 503.993 C 70.076 518.732,42.825 498.609,33.220 466.929 C 31.214 460.312,32.010 459.843,45.245 459.843 C 56.868 459.843,59.795 461.030,61.513 466.444 M330.709 464.692 C 330.709 479.270,304.978 510.236,292.864 510.236 C 277.987 510.236,274.466 496.353,286.727 486.036 C 291.986 481.610,298.401 473.907,300.981 468.916 C 306.419 458.400,330.709 454.949,330.709 464.692 "
       stroke="none"
       fill="#000000"
       fill-rule="evenodd" />
  </g>
  <path
     style="fill:#fff6d5;stroke-width:0.527038"
     d="m 133.86774,356.48295 c -9.6873,-0.42273 -18.68355,-1.2813 -19.64372,-1.87472 -0.27951,-0.17275 -0.35747,-1.38858 -0.17606,-2.74592 0.39187,-2.93207 4.55798,-19.66809 6.42149,-25.79628 1.19494,-3.92956 1.51201,-4.46136 3.04089,-5.10017 4.20852,-1.75843 10.72416,-1.98063 64.91783,-2.21386 l 53.76988,-0.23141 1.74018,7.81085 c 0.9571,4.29598 2.79074,12.17298 4.07475,17.50446 1.76356,7.32268 2.19011,9.86765 1.74396,10.40522 -1.96295,2.36521 -12.57091,2.82955 -62.65833,2.7427 -23.91437,-0.0415 -47.86826,-0.26685 -53.23087,-0.50087 z"
     id="path1256" />
  <path
     style="fill:#fff6d5;stroke-width:0.527038"
     d="m 157.935,388.17488 c -25.06842,-1.03848 -41.46989,-3.41249 -45.43846,-6.57692 -1.52747,-1.21796 -1.53534,-1.25083 -0.55814,-2.33063 3.55552,-3.9288 25.70478,-7.68905 56.59246,-9.60762 7.8339,-0.48659 12.38775,-0.48895 19.91786,-0.0103 38.99337,2.47851 65.58375,6.92298 65.58375,10.96206 0,2.02127 -10.14994,4.62134 -23.18968,5.94041 -16.21732,1.6405 -52.81773,2.45527 -72.90779,1.62302 z"
     id="path1258" />
  <path
     style="fill:#fff6d5;stroke-width:0.527038"
     d="m 113.77403,293.7016 c -8.56889,-11.99055 -11.53543,-16.67514 -15.134568,-23.89958 -8.098927,-16.25677 -11.775611,-31.5067 -11.807141,-48.97296 -0.04018,-22.25879 6.26025,-43.74423 18.965969,-64.67688 13.22412,-21.78672 30.63097,-39.39593 57.37974,-58.046799 8.16655,-5.69422 8.32621,-6.290918 3.33433,-12.461652 -1.52421,-1.884162 -3.56299,-5.088452 -4.53062,-7.120643 -5.79965,-12.180354 -1.01097,-26.458362 10.82298,-32.269935 2.57213,-1.263154 3.59128,-1.454893 7.73324,-1.454893 4.43932,0 5.04334,0.135157 8.69613,1.94587 7.57107,3.75302 13.49061,11.506473 14.68374,19.232852 0.99498,6.44316 -0.70955,12.499553 -5.66932,20.143737 -2.98873,4.606334 -2.9789,6.45623 0.0496,9.347484 1.23195,1.176099 4.96733,4.23105 8.30085,6.788769 43.24586,33.18147 66.6903,69.29613 70.13035,108.03132 1.3404,15.09302 -1.47471,32.92018 -7.7034,48.783 -2.8333,7.21567 -11.82315,25.59035 -14.30901,29.24671 -4.42892,6.51433 -9.43713,9.96898 -16.75916,11.56043 -8.38504,1.82249 -12.6402,1.96448 -65.35275,2.18078 l -52.70384,0.21625 -6.12719,-8.57386 z m 77.02686,-13.71249 c 0.007,-1.23195 0.35706,-20.85754 0.77754,-43.61242 0.42049,-22.75488 0.77038,-44.71862 0.77754,-48.80831 l 0.013,-7.4358 17.52402,-0.30021 c 17.88529,-0.30641 20.56502,-0.6029 22.24701,-2.46147 1.24786,-1.37887 1.66332,-6.97121 0.7255,-9.76562 -1.21311,-3.61464 -1.47507,-3.66169 -22.05019,-3.95988 l -18.18282,-0.26352 -0.37061,-10.01373 c -0.60023,-16.21775 -1.42435,-28.84531 -2.02073,-30.96263 -0.30604,-1.08654 -1.08099,-2.58535 -1.72211,-3.3307 -1.16357,-1.35273 -3.40537,-1.8589 -13.41057,-3.02789 l -2.23992,-0.26172 v 23.89588 23.89588 l -19.89569,0.16598 c -24.97221,0.20832 -23.84849,-0.16851 -23.84849,7.99738 0,5.03714 0.64318,6.33373 3.57305,7.20286 1.17586,0.34881 9.60927,0.70407 21.06599,0.88739 l 19.10514,0.30571 0.013,4.0082 c 0.007,2.20451 0.35705,22.62582 0.77754,45.3807 0.42049,22.75488 0.77038,43.92206 0.77754,47.03817 l 0.013,5.66567 h 8.16909 8.1691 z"
     id="path1260" />
  <path
     style="fill:#fff6d5;stroke-width:0.527038"
     d="m 44.234048,443.05271 c 2.132332,-2.36152 4.959583,-5.01077 6.282779,-5.88722 4.929277,-3.26501 12.875998,-4.81157 36.444497,-7.09267 33.919596,-3.28295 49.350426,-5.53478 57.937326,-8.45483 5.34055,-1.81611 7.94247,-2.26368 7.94247,-1.36625 0,0.77228 -4.07636,4.20836 -8.01591,6.75685 -11.39751,7.37301 -31.16033,13.91773 -51.385757,17.01706 -10.972475,1.68141 -22.144307,2.54531 -38.081105,2.94475 l -15.001269,0.37599 z"
     id="path1262" />
  <path
     style="fill:#fff6d5;stroke-width:0.527038"
     d="m 69.099115,508.2911 c -11.103167,-2.20758 -23.97376,-14.78166 -31.401016,-30.67761 -2.569294,-5.49885 -5.209929,-13.50733 -4.931124,-14.95505 0.371846,-1.93084 2.667781,-2.38434 11.936021,-2.3576 12.229665,0.0353 13.984656,0.68102 16.39879,6.03399 2.235112,4.95601 7.060882,11.04373 16.347585,20.62253 4.637247,4.7831 8.58162,9.29523 8.765272,10.02696 0.538254,2.14457 -0.11286,3.59818 -2.925957,6.53219 -3.997779,4.1696 -8.913354,5.82362 -14.189571,4.77459 z"
     id="path1266" />
  <path
     style="fill:#fff6d5;stroke-width:0.527038"
     d="m 303.57408,447.93166 c -28.70714,-2.37292 -64.59278,-10.69959 -80.90039,-18.77159 -3.21065,-1.58923 -5.06318,-2.97864 -7.76693,-5.82525 -1.95284,-2.05603 -3.45734,-3.83152 -3.34332,-3.94554 0.11402,-0.11402 2.13979,0.40316 4.50171,1.14929 15.47759,4.88937 27.26677,6.81653 58.12583,9.50175 28.23738,2.45709 39.83378,5.25493 44.86568,10.82464 4.12029,4.56068 1.8054,6.60044 -7.98403,7.0351 -2.81979,0.1252 -6.19413,0.13942 -7.49855,0.0316 z"
     id="path1268" />
  <path
     style="fill:#fff6d5;stroke-width:0.527038"
     d="m 287.41495,509.15334 c -6.90936,-2.16088 -9.47096,-8.40917 -6.29316,-15.35039 1.04133,-2.27458 2.88686,-4.5228 7.42044,-9.03959 5.86716,-5.84545 8.33939,-8.87436 13.02895,-15.96277 3.57294,-5.40059 10.25841,-8.83531 18.20328,-9.35208 6.8378,-0.44477 10.67857,1.56535 10.67857,5.58876 0,2.11352 -1.91379,8.14481 -3.72269,11.73199 -3.95791,7.84883 -12.98478,19.44793 -19.60687,25.1939 -8.46368,7.3439 -13.42708,9.15468 -19.70852,7.19018 z"
     id="path1270" />
</svg>
