<svg id="svg" xmlns="http://www.w3.org/2000/svg" xmlns:xlink="http://www.w3.org/1999/xlink" width="400" height="439.4366197183099" viewBox="0, 0, 400,439.4366197183099"><g id="svgg"><path id="path0" d="M212.402 52.860 C 210.702 53.998,208.480 63.066,207.466 73.011 C 205.106 96.135,206.135 95.908,187.612 77.386 C 167.767 57.540,164.558 58.282,165.539 82.486 L 166.288 100.997 154.699 107.510 C 143.181 113.984,135.211 124.875,135.211 134.142 C 135.211 136.806,127.289 147.424,117.606 157.738 C 57.703 221.541,55.719 224.785,63.797 245.718 C 76.091 277.579,101.630 287.357,123.810 268.694 C 135.637 258.742,163.489 245.148,172.138 245.106 C 176.180 245.086,186.638 241.464,195.378 237.055 C 226.801 221.205,215.883 241.951,168.248 288.604 C 130.607 325.469,125.352 335.665,125.352 371.831 C 125.352 412.718,112.255 408.451,237.750 408.451 C 338.508 408.451,346.201 408.105,347.553 403.521 C 373.489 315.552,345.818 210.797,276.336 133.909 C 263.788 120.024,253.521 107.219,253.521 105.455 C 253.521 96.675,223.127 50.619,217.417 50.747 C 216.359 50.771,214.102 51.722,212.402 52.860 M229.427 85.405 C 233.349 92.097,238.030 101.921,239.831 107.236 C 241.631 112.552,250.202 124.955,258.876 134.798 C 322.845 207.386,339.826 250.805,337.260 335.211 C 336.482 360.775,334.934 383.908,333.819 386.620 C 330.861 393.813,145.310 394.272,142.555 387.094 C 132.653 361.289,145.920 332.221,185.403 293.215 C 226.212 252.899,234.391 234.539,227.240 199.296 C 224.864 187.586,214.085 183.467,214.085 194.268 C 214.085 206.851,184.023 230.736,167.951 230.924 C 160.046 231.017,126.173 248.371,119.718 255.637 C 105.107 272.083,83.573 262.820,75.755 236.726 C 72.215 224.909,72.326 224.447,80.431 217.157 C 84.997 213.050,97.172 199.587,107.487 187.239 C 117.802 174.892,130.795 160.420,136.360 155.081 C 142.475 149.215,146.479 142.695,146.479 138.602 C 146.479 123.032,180.878 104.225,209.359 104.225 C 213.362 104.225,216.901 92.826,216.901 79.930 C 216.901 69.846,221.483 71.849,229.427 85.405 M183.617 88.744 C 187.235 96.686,185.458 100.100,178.995 97.620 C 174.213 95.784,172.912 81.690,177.525 81.690 C 179.108 81.690,181.849 84.865,183.617 88.744 M165.493 138.254 C 149.975 147.292,166.877 152.789,185.302 144.695 C 195.623 140.161,195.673 140.063,188.732 137.934 C 178.675 134.848,171.164 134.951,165.493 138.254 M285.920 193.701 C 308.927 248.919,313.735 326.272,296.889 370.172 C 295.278 374.372,296.789 374.875,308.724 374.113 L 322.406 373.239 324.742 360.563 C 333.294 314.152,321.187 244.250,297.133 201.163 C 280.304 171.016,274.997 167.484,285.920 193.701 M91.549 225.009 C 86.901 226.003,83.099 228.599,83.099 230.779 C 83.099 237.585,89.192 237.172,97.577 229.798 C 105.973 222.415,105.486 222.029,91.549 225.009 " stroke="none" fill="#000000" fill-rule="evenodd"></path></g></svg>