<svg id="svg" xmlns="http://www.w3.org/2000/svg" xmlns:xlink="http://www.w3.org/1999/xlink" width="400" height="525.9842519685039" viewBox="0, 0, 400,525.9842519685039"><g id="svgg"><path id="path0" d="M158.804 34.285 C 145.976 42.108,140.419 56.164,142.664 75.116 L 144.448 90.178 127.324 103.842 C 61.551 156.325,48.248 233.852,93.682 299.900 L 105.061 316.443 97.743 343.261 C 84.422 392.078,84.627 392.447,129.921 401.122 C 162.096 407.285,144.429 413.541,83.473 417.571 L 48.837 419.862 31.623 436.404 L 14.409 452.945 19.747 469.880 C 28.600 497.963,54.693 525.701,72.441 525.895 C 84.831 526.031,110.804 494.770,102.253 490.013 C 93.237 484.997,71.271 463.112,73.258 461.125 C 74.200 460.183,85.386 457.984,98.115 456.238 C 128.677 452.047,144.426 444.712,165.347 424.925 L 182.658 408.553 196.135 423.025 C 212.515 440.615,236.963 452.336,265.787 456.418 C 295.687 460.652,296.571 467.644,269.233 483.665 C 251.870 493.841,251.843 493.074,270.187 511.142 C 288.089 528.775,294.207 529.429,312.286 515.639 C 347.455 488.815,354.523 458.199,330.699 435.890 L 314.234 420.472 274.440 416.980 C 213.777 411.655,198.991 406.518,231.503 402.062 C 244.216 400.320,277.165 388.396,277.165 385.537 C 277.165 384.939,272.813 368.857,267.492 349.799 L 257.820 315.149 267.340 303.244 C 318.059 239.823,298.179 142.884,224.404 93.874 C 218.025 89.637,217.670 88.133,220.877 78.933 C 232.812 44.697,191.023 14.638,158.804 34.285 M196.994 51.825 C 206.070 60.902,207.039 74.034,199.433 84.893 C 194.268 92.267,194.399 92.639,204.945 100.543 C 271.727 150.596,293.235 209.817,265.658 267.717 C 248.480 303.781,251.946 302.362,181.010 302.362 L 119.746 302.362 108.881 287.402 C 64.564 226.379,87.232 148.026,163.901 97.225 C 171.156 92.418,171.324 91.710,166.514 86.201 C 145.298 61.901,174.328 29.160,196.994 51.825 M173.228 139.948 L 173.228 163.780 151.181 163.780 C 129.764 163.780,129.134 164.004,129.134 171.654 C 129.134 179.300,129.769 179.528,151.103 179.528 L 173.072 179.528 173.938 230.709 L 174.803 281.890 182.677 281.890 L 190.551 281.890 191.417 230.709 L 192.282 179.528 212.676 179.528 C 232.331 179.528,233.071 179.242,233.071 171.654 C 233.071 164.068,232.327 163.780,212.736 163.780 L 192.402 163.780 191.477 140.945 C 190.573 118.638,190.351 118.087,181.890 117.114 L 173.228 116.117 173.228 139.948 M244.327 326.772 C 247.420 340.669,248.720 346.101,250.356 351.969 C 251.786 357.097,247.081 357.480,182.639 357.480 C 138.558 357.480,113.392 356.335,113.403 354.331 C 113.420 351.336,118.553 330.439,121.333 322.047 C 122.315 319.081,137.409 318.110,182.518 318.110 L 242.400 318.110 244.327 326.772 M217.777 371.838 C 281.654 378.366,257.567 389.058,179.528 388.814 C 89.685 388.535,87.635 373.405,176.832 368.922 C 181.412 368.692,199.837 370.004,217.777 371.838 M149.606 424.077 C 132.016 437.981,95.677 447.040,56.931 447.182 L 39.847 447.244 46.642 440.011 C 52.602 433.667,58.402 432.327,93.804 429.119 C 116.006 427.107,137.643 424.074,141.888 422.379 C 153.441 417.766,156.687 418.480,149.606 424.077 M234.394 425.072 C 241.462 426.618,260.709 428.848,277.165 430.027 C 306.071 432.099,321.260 437.134,321.260 444.642 C 321.260 456.067,227.504 438.389,215.479 424.696 C 209.537 417.930,209.538 417.862,215.496 420.045 C 218.822 421.264,227.326 423.526,234.394 425.072 M61.513 466.444 C 62.666 470.076,69.336 478.605,76.336 485.398 C 88.710 497.406,88.907 497.924,83.414 503.993 C 70.076 518.732,42.825 498.609,33.220 466.929 C 31.214 460.312,32.010 459.843,45.245 459.843 C 56.868 459.843,59.795 461.030,61.513 466.444 M330.709 464.692 C 330.709 479.270,304.978 510.236,292.864 510.236 C 277.987 510.236,274.466 496.353,286.727 486.036 C 291.986 481.610,298.401 473.907,300.981 468.916 C 306.419 458.400,330.709 454.949,330.709 464.692 " stroke="none" fill="#000000" fill-rule="evenodd"></path></g></svg>