<?xml version="1.0" encoding="UTF-8" standalone="no"?>
<svg
   id="svg"
   width="400"
   height="386.44067796610165"
   viewBox="0, 0, 400,386.44067796610165"
   version="1.1"
   sodipodi:docname="white-king-filled.svg"
   inkscape:version="1.2.2 (b0a8486541, 2022-12-01)"
   xmlns:inkscape="http://www.inkscape.org/namespaces/inkscape"
   xmlns:sodipodi="http://sodipodi.sourceforge.net/DTD/sodipodi-0.dtd"
   xmlns="http://www.w3.org/2000/svg"
   xmlns:svg="http://www.w3.org/2000/svg">
  <defs
     id="defs533" />
  <sodipodi:namedview
     id="namedview531"
     pagecolor="#ffffff"
     bordercolor="#000000"
     borderopacity="0.25"
     inkscape:showpageshadow="2"
     inkscape:pageopacity="0.0"
     inkscape:pagecheckerboard="0"
     inkscape:deskcolor="#d1d1d1"
     showgrid="false"
     inkscape:zoom="2.5825439"
     inkscape:cx="200.38382"
     inkscape:cy="193.22034"
     inkscape:window-width="2560"
     inkscape:window-height="1351"
     inkscape:window-x="2871"
     inkscape:window-y="-9"
     inkscape:window-maximized="1"
     inkscape:current-layer="svg" />
  <g
     id="svgg">
    <path
       id="path0"
       d="M193.701 30.781 C 192.815 31.667,192.090 34.256,192.090 36.535 C 192.090 39.171,190.447 40.678,187.571 40.678 C 184.055 40.678,183.051 42.185,183.051 47.458 C 183.051 52.731,184.055 54.237,187.571 54.237 C 194.287 54.237,193.772 70.947,186.656 83.896 C 180.929 94.319,175.071 112.713,172.789 127.439 L 171.427 136.233 160.855 125.987 C 145.858 111.452,137.228 107.556,119.774 107.441 C 56.468 107.025,46.297 186.549,103.955 231.123 L 111.864 237.238 103.955 237.294 C 84.619 237.431,85.876 233.739,85.876 290.408 L 85.876 340.740 93.220 342.016 C 143.455 350.740,259.003 350.774,306.780 342.077 L 314.124 340.740 314.124 290.408 C 314.124 233.739,315.403 237.498,296.045 237.247 L 288.136 237.145 294.915 232.254 C 340.153 199.620,347.718 138.374,309.435 114.705 C 287.484 101.134,262.512 104.732,240.776 124.598 L 228.496 135.821 227.172 127.232 C 224.936 112.731,219.048 94.277,213.344 83.896 C 206.228 70.947,205.713 54.237,212.429 54.237 C 215.945 54.237,216.949 52.731,216.949 47.458 C 216.949 42.266,215.927 40.678,212.587 40.678 C 209.783 40.678,207.966 38.861,207.502 35.593 C 206.779 30.501,197.289 27.193,193.701 30.781 M207.848 107.678 C 214.406 128.910,213.938 156.295,206.369 194.242 C 203.033 210.963,200.025 223.674,199.684 222.491 C 188.668 184.306,184.736 132.437,191.201 110.580 C 198.492 85.927,200.995 85.491,207.848 107.678 M138.023 125.596 C 163.398 138.349,198.325 228.740,179.799 233.715 C 162.229 238.435,127.850 231.255,112.716 219.705 C 59.971 179.454,82.023 97.452,138.023 125.596 M301.615 126.345 C 323.297 138.509,323.208 180.390,301.444 206.400 C 285.428 225.541,258.824 236.350,231.941 234.639 C 213.798 233.483,214.790 234.676,217.240 216.949 C 227.260 144.441,263.845 105.155,301.615 126.345 M277.619 250.056 L 298.305 251.524 298.305 260.790 L 298.305 270.056 200.000 270.075 L 101.695 270.094 101.695 260.579 L 101.695 251.063 115.819 250.261 C 142.645 248.737,256.997 248.592,277.619 250.056 M291.243 283.898 C 297.094 285.068,298.305 286.374,298.305 291.512 C 298.305 300.222,295.099 300.515,200.000 300.515 C 104.638 300.515,101.695 300.242,101.695 291.387 C 101.695 286.623,102.951 284.818,106.780 284.081 C 114.935 282.510,283.468 282.343,291.243 283.898 M298.305 319.166 C 298.305 329.100,298.543 329.007,265.537 331.878 C 232.403 334.760,172.458 334.937,140.113 332.247 C 100.854 328.983,101.695 329.269,101.695 319.166 L 101.695 310.734 200.000 310.734 L 298.305 310.734 298.305 319.166 "
       stroke="none"
       fill="#000000"
       fill-rule="evenodd" />
  </g>
  <path
     style="fill:#fff6d5;stroke-width:0.387215"
     d="m 225.4546,234.05464 c -9.28647,-0.76132 -10.05969,-1.74276 -8.83358,-11.21235 5.19325,-40.10881 16.8203,-70.14032 33.85022,-87.43171 9.46875,-9.61413 19.64079,-14.43744 30.4831,-14.45428 6.74431,-0.0105 12.13266,1.36265 18.94376,4.82748 6.89413,3.50707 11.8362,9.3431 14.69215,17.34978 2.31465,6.4891 2.73335,9.27702 2.72462,18.14153 -0.007,6.72258 -0.14454,8.61968 -0.9008,12.39088 -4.24866,21.18633 -16.26657,38.121 -34.81081,49.05258 -9.90954,5.84155 -22.62102,10.04452 -34.25435,11.326 -4.17099,0.45946 -16.34449,0.46507 -21.89431,0.0101 z"
     id="path652" />
  <path
     style="fill:#fff6d5;stroke-width:0.387215"
     d="m 156.4349,234.41374 c -8.19886,-0.93658 -19.49149,-3.59648 -26.96564,-6.35156 -5.87108,-2.16417 -12.74666,-5.71785 -16.59606,-8.57777 -4.59504,-3.4139 -12.49663,-11.42986 -15.839234,-16.06849 -10.920493,-15.15472 -15.786127,-32.78716 -13.593641,-49.26164 2.444453,-18.36776 12.98528,-31.11797 27.884015,-33.72857 2.57014,-0.45035 9.10453,-0.26834 12.25678,0.34139 7.15709,1.38438 15.00152,4.87292 19.55286,8.69546 7.55211,6.3428 16.06029,18.87082 24.36608,35.87829 10.91788,22.35613 17.58081,44.90451 17.12549,57.95526 -0.14218,4.07553 -0.26984,4.73785 -1.29926,6.74111 -1.39601,2.71666 -2.56486,3.39191 -7.29094,4.21201 -3.76855,0.65394 -14.5256,0.74423 -19.60045,0.16451 z"
     id="path654" />
  <path
     style="fill:#fff6d5;stroke-width:0.387215"
     d="m 199.41578,221.07901 c 0,-0.11793 -0.50636,-2.16533 -1.12525,-4.54978 -7.01293,-27.01939 -11.05954,-62.17548 -9.77719,-84.94227 0.69535,-12.34536 1.58609,-17.29021 4.96326,-27.55311 2.19616,-6.67391 3.97261,-10.523844 5.35925,-11.614574 0.95786,-0.753452 1.18641,-0.793087 1.89925,-0.329363 2.29555,1.493311 6.65679,13.052067 8.93751,23.687407 3.39764,15.84363 3.32179,35.37837 -0.23154,59.63112 -2.13955,14.60322 -8.73274,45.88499 -9.67107,45.88499 -0.19482,0 -0.35422,-0.0965 -0.35422,-0.21442 z"
     id="path656" />
  <path
     style="fill:#fff6d5;stroke-width:0.387215"
     d="m 101.83757,260.65036 v -9.43217 l 4.93699,-0.26219 c 2.71535,-0.1442 8.07344,-0.42554 11.90687,-0.6252 14.17246,-0.73816 67.5385,-1.25402 105.1289,-1.01623 38.07894,0.24088 48.9788,0.52854 65.24575,1.7219 l 8.90594,0.65335 0.10378,8.93864 0.10379,8.93865 -53.73308,0.25756 c -29.55319,0.14165 -73.72789,0.25763 -98.166,0.25771 l -44.43294,1.6e-4 z"
     id="path658" />
  <path
     style="fill:#fff6d5;stroke-width:0.387215"
     d="m 131.26592,299.89756 c -19.79698,-0.59144 -27.05233,-1.84225 -28.71172,-4.94986 -0.31111,-0.58264 -0.51839,-2.17068 -0.51158,-3.91957 0.0213,-5.46992 1.42823,-6.56256 9.08458,-7.05508 15.92071,-1.02413 140.96922,-1.26404 169.41014,-0.32501 15.457,0.51034 17.01403,1.12003 17.49444,6.85034 0.54093,6.45219 -2.42707,7.84781 -19.23691,9.0456 -7.48717,0.5335 -131.55352,0.83085 -147.52895,0.35358 z"
     id="path660" />
  <path
     style="fill:#fff6d5;stroke-width:0.387215"
     d="m 175.02123,333.71185 c -16.76553,-0.40348 -30.37677,-1.20181 -48.78911,-2.86159 -18.9494,-1.7082 -22.96798,-2.79173 -23.98901,-6.46818 -0.22067,-0.79458 -0.40219,-4.18907 -0.40338,-7.54332 l -0.002,-6.09864 h 98.19664 98.19664 l -0.13441,6.94204 c -0.14868,7.67886 -0.33301,8.28921 -2.96973,9.83337 -4.20814,2.46444 -33.15342,5.07718 -67.25062,6.07035 -11.551,0.33646 -41.17505,0.40706 -52.85486,0.12597 z"
     id="path662" />
</svg>
