<?xml version="1.0" encoding="UTF-8" standalone="no"?>
<svg
   id="svg"
   width="400"
   height="540"
   viewBox="0, 0, 400,540"
   version="1.1"
   sodipodi:docname="white-pawn-filled.svg"
   inkscape:version="1.2.2 (b0a8486541, 2022-12-01)"
   xmlns:inkscape="http://www.inkscape.org/namespaces/inkscape"
   xmlns:sodipodi="http://sodipodi.sourceforge.net/DTD/sodipodi-0.dtd"
   xmlns="http://www.w3.org/2000/svg"
   xmlns:svg="http://www.w3.org/2000/svg">
  <defs
     id="defs687" />
  <sodipodi:namedview
     id="namedview685"
     pagecolor="#ffffff"
     bordercolor="#000000"
     borderopacity="0.25"
     inkscape:showpageshadow="2"
     inkscape:pageopacity="0.0"
     inkscape:pagecheckerboard="0"
     inkscape:deskcolor="#d1d1d1"
     showgrid="false"
     inkscape:zoom="1.8481481"
     inkscape:cx="200.47094"
     inkscape:cy="270"
     inkscape:window-width="2560"
     inkscape:window-height="1351"
     inkscape:window-x="2871"
     inkscape:window-y="-9"
     inkscape:window-maximized="1"
     inkscape:current-layer="svg" />
  <g
     id="svgg">
    <path
       id="path0"
       d="M143.322 28.107 C 114.111 43.538,100.157 87.115,113.104 122.479 C 115.751 129.709,114.410 131.318,104.002 133.400 C 60.406 142.119,60.871 202.644,104.603 211.588 C 115.531 213.823,118.195 216.559,120.523 227.941 C 123.087 240.478,130.584 249.528,141.388 253.129 C 158.654 258.885,125.915 379.507,105.675 384.710 C 90.848 388.522,81.214 398.480,79.365 411.904 C 78.238 420.079,75.074 422.305,61.240 424.654 C 29.152 430.104,12.000 452.198,12.000 488.081 L 12.000 504.000 182.000 504.000 L 352.000 504.000 352.000 487.263 C 352.000 452.721,333.240 429.520,301.124 424.343 C 288.383 422.289,285.802 420.194,284.743 411.041 C 283.342 398.931,267.048 384.000,255.236 384.000 C 231.775 384.000,208.275 258.626,229.890 248.778 C 235.632 246.162,240.804 239.602,242.224 233.136 C 246.549 213.431,247.588 212.000,257.568 212.000 C 301.468 212.000,303.526 142.105,259.883 133.377 C 250.460 131.492,248.222 129.393,250.367 124.456 C 279.066 58.423,207.638 -5.867,143.322 28.107 M215.618 50.292 C 236.987 68.273,239.841 104.286,221.501 124.551 C 215.888 130.754,208.802 132.000,179.155 132.000 L 143.550 132.000 135.407 113.590 C 112.545 61.908,172.858 14.312,215.618 50.292 M260.263 156.141 C 265.209 158.788,268.000 164.508,268.000 172.000 C 268.000 190.093,259.634 192.000,180.263 192.000 C 105.733 192.000,92.000 188.888,92.000 172.000 C 92.000 153.591,231.016 140.488,260.263 156.141 M218.708 218.404 C 223.409 230.654,165.090 238.900,148.417 228.342 C 133.371 218.815,147.377 212.000,182.000 212.000 C 209.715 212.000,216.720 213.222,218.708 218.404 M200.570 290.498 C 202.772 321.763,209.437 354.243,218.497 377.852 C 220.519 383.123,215.308 384.000,181.961 384.000 C 146.749 384.000,143.275 383.337,145.264 377.000 C 156.710 340.540,160.648 320.673,162.748 288.799 L 165.199 251.599 181.600 252.799 L 198.000 254.000 200.570 290.498 M253.673 406.428 C 278.830 416.081,258.136 420.000,182.000 420.000 C 117.373 420.000,104.000 419.028,104.000 414.333 C 104.000 411.217,106.250 407.759,109.000 406.649 C 116.215 403.738,246.145 403.539,253.673 406.428 M315.476 454.000 C 319.705 458.400,324.373 466.050,325.852 471.000 L 328.539 480.000 182.000 480.000 L 35.461 480.000 38.220 471.000 C 46.235 444.855,49.869 444.224,186.894 445.167 C 301.977 445.960,308.158 446.385,315.476 454.000 "
       stroke="none"
       fill="#000000"
       fill-rule="evenodd" />
  </g>
  <path
     style="fill:#fff6d5;stroke-width:0.541082"
     d="m 38.253387,471.95892 c 1.338551,-4.24073 3.169369,-9.10127 4.068482,-10.80119 5.272372,-9.96828 14.36221,-13.13862 43.439654,-15.15085 19.391577,-1.34194 180.978887,-0.38895 204.038937,1.20336 9.8908,0.68297 16.80035,1.81272 20.30351,3.31973 5.54406,2.385 12.3565,11.82873 15.7302,21.80595 1.11228,3.28939 2.03116,6.28507 2.04197,6.65707 0.0157,0.53946 -29.5382,0.67635 -146.01841,0.67635 H 35.819656 Z"
     id="path806" />
  <path
     style="fill:#fff6d5;stroke-width:0.541082"
     d="m 125.8016,419.00706 c -10.61152,-0.47705 -18.00021,-1.54168 -20.05826,-2.89016 -1.6865,-1.10504 -1.72415,-3.32086 -0.0971,-5.71158 2.18536,-3.21095 3.38292,-3.7207 10.14529,-4.31841 18.24752,-1.61287 97.31706,-1.92329 125.25218,-0.49173 9.57684,0.49078 11.2164,0.71357 14.33867,1.94845 16.44523,6.50418 7.70958,9.88681 -29.75117,11.5203 -14.24308,0.62107 -85.65465,0.58039 -99.82966,-0.0569 z"
     id="path808" />
  <path
     style="fill:#fff6d5;stroke-width:0.541082"
     d="m 158.38747,383.34044 c -8.52155,-0.41432 -12.52426,-1.39447 -13.09978,-3.20775 -0.17274,-0.54425 1.17097,-5.94605 2.98603,-12.004 6.19951,-20.69163 9.70899,-35.7582 11.82919,-50.784 1.76273,-12.49241 2.39701,-19.91777 4.58857,-53.71723 0.40092,-6.18325 0.83745,-11.35078 0.97006,-11.48339 0.24044,-0.24044 30.51689,1.81092 31.5836,2.13992 0.34054,0.10503 1.04506,7.28246 1.78894,18.2252 2.13563,31.4159 3.63316,44.16468 7.42755,63.23229 2.50778,12.60214 4.96396,21.96155 8.99893,34.2908 3.22191,9.84485 3.30537,10.23962 2.31756,10.96193 -0.5636,0.41211 -1.88818,0.99713 -2.94351,1.30003 -4.71051,1.35206 -37.61363,1.96188 -56.44714,1.0462 z"
     id="path810" />
  <path
     style="fill:#fff6d5;stroke-width:0.541082"
     d="m 163.13627,232.31834 c -5.36161,-0.68038 -9.82335,-1.88723 -13.14493,-3.55554 -3.53661,-1.77632 -7.14565,-5.55117 -7.14565,-7.47394 0,-4.0363 8.26013,-7.00371 23.41453,-8.41154 8.43298,-0.78342 38.60455,-0.38501 43.39196,0.57298 10.43756,2.08862 11.88403,7.96614 3.05616,12.41823 -10.43064,5.2604 -34.38475,8.37707 -49.57207,6.44981 z"
     id="path812" />
  <path
     style="fill:#fff6d5;stroke-width:0.541082"
     d="m 142.03407,191.27749 c -25.08093,-0.92929 -37.62679,-2.98064 -43.909725,-7.17959 -3.497288,-2.33728 -5.599295,-6.35933 -5.599295,-10.71389 0,-2.76397 0.183129,-3.26606 1.758517,-4.82135 8.367763,-8.261 46.038413,-15.91137 90.872783,-18.45496 14.66808,-0.83217 43.7368,-0.38564 52.9198,0.81291 12.19588,1.59177 20.70767,4.09469 24.35122,7.16053 5.00322,4.20993 6.93485,16.13371 3.69711,22.82198 -2.81755,5.82027 -10.7755,8.38756 -30.4832,9.83408 -10.14474,0.74461 -77.58653,1.13388 -93.60721,0.54029 z"
     id="path814" />
  <path
     style="fill:#fff6d5;stroke-width:0.541082"
     d="m 143.22364,130.31871 c -1.56645,-3.06748 -8.65334,-19.46643 -9.63286,-22.29029 -3.12646,-9.013241 -3.6403,-20.503544 -1.32223,-29.566902 2.56659,-10.035047 7.23097,-17.988626 14.82782,-25.284026 7.23113,-6.944184 13.93526,-10.862978 23.13077,-13.520725 6.16808,-1.782744 18.58196,-1.790685 24.71854,-0.01581 20.3575,5.887952 34.34481,21.834586 37.74018,43.026767 1.03187,6.440438 0.41716,16.794436 -1.3562,22.843296 -2.68205,9.14836 -8.35284,18.36844 -13.18053,21.43006 -6.28647,3.98677 -9.83598,4.35807 -44.55563,4.66083 l -29.58285,0.25796 z"
     id="path816" />
</svg>
