<?xml version="1.0" encoding="UTF-8" standalone="no"?>
<svg
   id="svg"
   width="400"
   height="439.4366197183099"
   viewBox="0, 0, 400,439.4366197183099"
   version="1.1"
   sodipodi:docname="white-knight-filled.svg"
   inkscape:version="1.2.2 (b0a8486541, 2022-12-01)"
   xmlns:inkscape="http://www.inkscape.org/namespaces/inkscape"
   xmlns:sodipodi="http://sodipodi.sourceforge.net/DTD/sodipodi-0.dtd"
   xmlns="http://www.w3.org/2000/svg"
   xmlns:svg="http://www.w3.org/2000/svg">
  <defs
     id="defs995" />
  <sodipodi:namedview
     id="namedview993"
     pagecolor="#ffffff"
     bordercolor="#000000"
     borderopacity="0.25"
     inkscape:showpageshadow="2"
     inkscape:pageopacity="0.0"
     inkscape:pagecheckerboard="0"
     inkscape:deskcolor="#d1d1d1"
     showgrid="false"
     inkscape:zoom="2.2710898"
     inkscape:cx="200.12419"
     inkscape:cy="219.71831"
     inkscape:window-width="2560"
     inkscape:window-height="1351"
     inkscape:window-x="2871"
     inkscape:window-y="-9"
     inkscape:window-maximized="1"
     inkscape:current-layer="svg" />
  <g
     id="svgg">
    <path
       id="path0"
       d="M212.402 52.860 C 210.702 53.998,208.480 63.066,207.466 73.011 C 205.106 96.135,206.135 95.908,187.612 77.386 C 167.767 57.540,164.558 58.282,165.539 82.486 L 166.288 100.997 154.699 107.510 C 143.181 113.984,135.211 124.875,135.211 134.142 C 135.211 136.806,127.289 147.424,117.606 157.738 C 57.703 221.541,55.719 224.785,63.797 245.718 C 76.091 277.579,101.630 287.357,123.810 268.694 C 135.637 258.742,163.489 245.148,172.138 245.106 C 176.180 245.086,186.638 241.464,195.378 237.055 C 226.801 221.205,215.883 241.951,168.248 288.604 C 130.607 325.469,125.352 335.665,125.352 371.831 C 125.352 412.718,112.255 408.451,237.750 408.451 C 338.508 408.451,346.201 408.105,347.553 403.521 C 373.489 315.552,345.818 210.797,276.336 133.909 C 263.788 120.024,253.521 107.219,253.521 105.455 C 253.521 96.675,223.127 50.619,217.417 50.747 C 216.359 50.771,214.102 51.722,212.402 52.860 M229.427 85.405 C 233.349 92.097,238.030 101.921,239.831 107.236 C 241.631 112.552,250.202 124.955,258.876 134.798 C 322.845 207.386,339.826 250.805,337.260 335.211 C 336.482 360.775,334.934 383.908,333.819 386.620 C 330.861 393.813,145.310 394.272,142.555 387.094 C 132.653 361.289,145.920 332.221,185.403 293.215 C 226.212 252.899,234.391 234.539,227.240 199.296 C 224.864 187.586,214.085 183.467,214.085 194.268 C 214.085 206.851,184.023 230.736,167.951 230.924 C 160.046 231.017,126.173 248.371,119.718 255.637 C 105.107 272.083,83.573 262.820,75.755 236.726 C 72.215 224.909,72.326 224.447,80.431 217.157 C 84.997 213.050,97.172 199.587,107.487 187.239 C 117.802 174.892,130.795 160.420,136.360 155.081 C 142.475 149.215,146.479 142.695,146.479 138.602 C 146.479 123.032,180.878 104.225,209.359 104.225 C 213.362 104.225,216.901 92.826,216.901 79.930 C 216.901 69.846,221.483 71.849,229.427 85.405 M183.617 88.744 C 187.235 96.686,185.458 100.100,178.995 97.620 C 174.213 95.784,172.912 81.690,177.525 81.690 C 179.108 81.690,181.849 84.865,183.617 88.744 M165.493 138.254 C 149.975 147.292,166.877 152.789,185.302 144.695 C 195.623 140.161,195.673 140.063,188.732 137.934 C 178.675 134.848,171.164 134.951,165.493 138.254 M285.920 193.701 C 308.927 248.919,313.735 326.272,296.889 370.172 C 295.278 374.372,296.789 374.875,308.724 374.113 L 322.406 373.239 324.742 360.563 C 333.294 314.152,321.187 244.250,297.133 201.163 C 280.304 171.016,274.997 167.484,285.920 193.701 M91.549 225.009 C 86.901 226.003,83.099 228.599,83.099 230.779 C 83.099 237.585,89.192 237.172,97.577 229.798 C 105.973 222.415,105.486 222.029,91.549 225.009 "
       stroke="none"
       fill="#000000"
       fill-rule="evenodd" />
  </g>
  <path
     style="fill:#fff6d5;stroke-width:0.440317"
     d="m 197.26213,391.66914 c -29.70977,-0.74365 -49.4975,-2.22692 -53.39421,-4.00238 -1.11371,-0.50744 -2.3056,-3.59526 -3.47164,-8.99393 -0.84442,-3.90961 -0.71034,-13.7478 0.24903,-18.27316 3.12159,-14.72452 12.01743,-30.32544 27.77604,-48.71174 2.66392,-3.10812 10.6887,-11.61532 17.83285,-18.90488 7.14414,-7.28957 14.9912,-15.51617 17.4379,-18.28133 15.06622,-17.02723 22.31014,-29.66787 25.11803,-43.83096 1.91488,-9.65872 0.14046,-30.35272 -3.14787,-36.71165 -0.97548,-1.88637 -3.64215,-4.76841 -5.11844,-5.53183 -1.45301,-0.75138 -3.1875,-0.81276 -4.41427,-0.15621 -1.10288,0.59024 -2.13537,2.97599 -2.13537,4.93414 0,5.6226 -5.5188,13.95093 -14.06767,21.22929 -11.32882,9.64516 -22.10759,15.10616 -32.45499,16.44311 -4.39334,0.56765 -10.08092,2.64223 -19.06559,6.95428 -13.46834,6.46394 -23.45387,12.55659 -28.41065,17.33472 -4.19546,4.04425 -7.77444,6.44916 -11.14853,7.49131 -9.365785,2.8928 -19.39225,-1.77114 -26.431509,-12.29495 -5.50121,-8.2244 -9.664556,-21.86765 -8.005048,-26.23249 0.240293,-0.63202 3.476517,-4.16195 7.191611,-7.8443 7.905001,-7.83531 10.949418,-11.19991 25.381216,-28.05056 13.75555,-16.06103 19.49227,-22.4932 26.94977,-30.21677 9.38332,-9.71811 11.92422,-13.59229 12.73427,-19.41635 0.26132,-1.87883 0.97463,-4.43618 1.58513,-5.68299 5.89214,-12.03331 28.59922,-24.38862 50.82772,-27.65622 2.57391,-0.37837 6.12162,-0.68794 7.8838,-0.68794 3.13553,0 3.23779,-0.0356 4.78699,-1.66713 2.72147,-2.86606 4.74785,-10.275863 5.14252,-18.804408 0.31441,-6.79433 0.56055,-8.414105 1.44447,-9.505702 0.73163,-0.903518 0.84336,-0.917719 2.10149,-0.267111 3.86955,2.001024 13.03433,17.445829 18.33857,30.904821 3.61066,9.16169 9.4616,17.57509 23.88446,34.34475 18.73316,21.78132 30.17987,36.76406 40.36794,52.83807 27.45982,43.32417 36.37651,82.57572 33.80878,148.82723 -0.99036,25.55289 -2.41151,44.0185 -3.48751,45.31501 -1.64417,1.9811 -17.95964,3.59165 -47.36537,4.67558 -16.31444,0.60137 -71.27638,0.86941 -88.72392,0.43268 z m 116.95042,-17.68353 8.41222,-0.51492 1.5859,-8.84717 c 2.69025,-15.00792 3.38761,-22.73137 3.38101,-37.44574 -0.0181,-40.21787 -10.00633,-85.33702 -26.13531,-118.05858 -7.82725,-15.87947 -18.70759,-33.21246 -20.84829,-33.21246 -1.49918,0 -0.20085,4.68109 4.70178,16.95222 6.37412,15.95418 10.31003,28.48162 13.65313,43.45603 10.60774,47.51417 10.20084,96.9205 -1.07251,130.22555 -1.74515,5.15573 -1.91961,6.81367 -0.78642,7.47369 1.03596,0.60339 6.94478,0.59351 17.10849,-0.0286 z M 89.782239,235.1444 c 1.00623,-0.35502 2.922125,-1.37073 4.257544,-2.25713 3.315334,-2.20059 9.598247,-8.2733 9.347797,-9.03505 -0.33118,-1.00732 -2.56942,-0.93993 -8.471287,0.25506 -6.177287,1.25076 -9.205101,2.5421 -11.021251,4.70047 -1.024272,1.21728 -1.161075,1.68999 -0.930136,3.21395 0.507136,3.34657 2.97669,4.47776 6.817333,3.1227 z M 178.7688,147.30737 c 3.64557,-1.0467 11.86367,-4.54054 13.75992,-5.84988 0.66598,-0.45985 1.21087,-1.0983 1.21087,-1.41878 0,-1.13456 -7.47396,-3.39123 -14.19541,-4.28613 -7.12372,-0.94846 -13.86246,0.98737 -18.23699,5.23893 -1.79253,1.74214 -1.95054,2.06821 -1.8272,3.77059 0.12422,1.71461 0.29337,1.94536 2.11644,2.88726 1.85964,0.9608 2.34679,1.01089 7.92571,0.81495 4.25594,-0.14947 6.88225,-0.47808 9.24666,-1.15694 z"
     id="path1114" />
  <path
     style="fill:#fff6d5;stroke-width:0.440317"
     d="m 179.36549,97.533674 c -4.5827,-1.849215 -6.20136,-15.414507 -1.83931,-15.414507 2.20698,0 6.35678,6.359144 7.43713,11.396622 0.41395,1.930175 0.37966,2.454478 -0.2204,3.370281 -0.57615,0.879326 -1.06274,1.079237 -2.5718,1.056608 -1.02366,-0.01535 -2.28619,-0.199402 -2.80562,-0.409004 z"
     id="path1116" />
</svg>
