<svg id="svg" xmlns="http://www.w3.org/2000/svg" xmlns:xlink="http://www.w3.org/1999/xlink" width="400" height="386.44067796610165" viewBox="0, 0, 400,386.44067796610165"><g id="svgg"><path id="path0" d="M193.701 30.781 C 192.815 31.667,192.090 34.256,192.090 36.535 C 192.090 39.171,190.447 40.678,187.571 40.678 C 184.055 40.678,183.051 42.185,183.051 47.458 C 183.051 52.731,184.055 54.237,187.571 54.237 C 194.287 54.237,193.772 70.947,186.656 83.896 C 180.929 94.319,175.071 112.713,172.789 127.439 L 171.427 136.233 160.855 125.987 C 145.858 111.452,137.228 107.556,119.774 107.441 C 56.468 107.025,46.297 186.549,103.955 231.123 L 111.864 237.238 103.955 237.294 C 84.619 237.431,85.876 233.739,85.876 290.408 L 85.876 340.740 93.220 342.016 C 143.455 350.740,259.003 350.774,306.780 342.077 L 314.124 340.740 314.124 290.408 C 314.124 233.739,315.403 237.498,296.045 237.247 L 288.136 237.145 294.915 232.254 C 340.153 199.620,347.718 138.374,309.435 114.705 C 287.484 101.134,262.512 104.732,240.776 124.598 L 228.496 135.821 227.172 127.232 C 224.936 112.731,219.048 94.277,213.344 83.896 C 206.228 70.947,205.713 54.237,212.429 54.237 C 215.945 54.237,216.949 52.731,216.949 47.458 C 216.949 42.266,215.927 40.678,212.587 40.678 C 209.783 40.678,207.966 38.861,207.502 35.593 C 206.779 30.501,197.289 27.193,193.701 30.781 M207.848 107.678 C 214.406 128.910,213.938 156.295,206.369 194.242 C 203.033 210.963,200.025 223.674,199.684 222.491 C 188.668 184.306,184.736 132.437,191.201 110.580 C 198.492 85.927,200.995 85.491,207.848 107.678 M138.023 125.596 C 163.398 138.349,198.325 228.740,179.799 233.715 C 162.229 238.435,127.850 231.255,112.716 219.705 C 59.971 179.454,82.023 97.452,138.023 125.596 M301.615 126.345 C 323.297 138.509,323.208 180.390,301.444 206.400 C 285.428 225.541,258.824 236.350,231.941 234.639 C 213.798 233.483,214.790 234.676,217.240 216.949 C 227.260 144.441,263.845 105.155,301.615 126.345 M277.619 250.056 L 298.305 251.524 298.305 260.790 L 298.305 270.056 200.000 270.075 L 101.695 270.094 101.695 260.579 L 101.695 251.063 115.819 250.261 C 142.645 248.737,256.997 248.592,277.619 250.056 M291.243 283.898 C 297.094 285.068,298.305 286.374,298.305 291.512 C 298.305 300.222,295.099 300.515,200.000 300.515 C 104.638 300.515,101.695 300.242,101.695 291.387 C 101.695 286.623,102.951 284.818,106.780 284.081 C 114.935 282.510,283.468 282.343,291.243 283.898 M298.305 319.166 C 298.305 329.100,298.543 329.007,265.537 331.878 C 232.403 334.760,172.458 334.937,140.113 332.247 C 100.854 328.983,101.695 329.269,101.695 319.166 L 101.695 310.734 200.000 310.734 L 298.305 310.734 298.305 319.166 " stroke="none" fill="#000000" fill-rule="evenodd"></path></g></svg>