<svg id="svg" xmlns="http://www.w3.org/2000/svg" xmlns:xlink="http://www.w3.org/1999/xlink" width="400" height="503.93700787401576" viewBox="0, 0, 400,503.93700787401576"><g id="svgg"><path id="path0" d="M50.394 108.539 L 50.394 157.480 59.683 157.480 C 67.500 157.480,71.245 160.664,83.305 177.565 L 97.638 197.650 97.638 248.819 L 97.638 299.987 83.305 320.072 C 71.336 336.845,67.466 340.157,59.834 340.157 C 50.822 340.157,50.681 340.434,49.757 359.843 L 48.819 379.528 30.709 380.472 L 12.598 381.417 12.598 409.606 L 12.598 437.795 177.953 437.795 L 343.307 437.795 343.307 409.449 L 343.307 381.102 326.135 381.102 L 308.962 381.102 308.024 361.417 L 307.087 341.732 296.272 340.157 C 287.230 338.841,283.227 335.321,271.862 318.696 L 258.268 298.809 258.268 248.819 L 258.268 198.829 271.862 178.942 C 283.227 162.316,287.230 158.797,296.272 157.480 L 307.087 155.906 307.087 108.661 L 307.087 61.417 277.953 60.512 L 248.819 59.606 248.819 73.898 L 248.819 88.189 233.071 88.189 L 217.323 88.189 217.323 74.016 L 217.323 59.843 177.953 59.843 L 138.583 59.843 138.583 74.016 L 138.583 88.189 123.016 88.189 L 107.449 88.189 106.480 74.803 L 105.512 61.417 77.953 60.507 L 50.394 59.597 50.394 108.539 M288.189 125.984 C 288.189 130.077,273.560 130.819,178.740 131.537 C 70.652 132.355,69.291 132.286,69.291 125.984 C 69.291 119.683,70.652 119.614,178.740 120.432 C 273.560 121.149,288.189 121.891,288.189 125.984 M255.072 165.410 C 249.754 171.818,103.720 171.016,101.573 164.567 C 100.548 161.487,117.541 160.630,179.651 160.630 C 250.274 160.630,258.601 161.158,255.072 165.410 M256.257 325.984 C 257.839 330.106,248.038 330.709,179.429 330.709 C 107.635 330.709,96.598 329.649,102.887 323.360 C 107.730 318.517,254.354 321.026,256.257 325.984 M286.618 363.780 C 286.618 365.802,247.745 367.225,177.954 367.757 C 82.283 368.487,69.291 368.011,69.291 363.780 C 69.291 359.548,82.283 359.073,177.954 359.802 C 247.745 360.334,286.618 361.757,286.618 363.780 " stroke="none" fill="#000000" fill-rule="evenodd"></path></g></svg>