<svg id="svg" xmlns="http://www.w3.org/2000/svg" xmlns:xlink="http://www.w3.org/1999/xlink" width="400" height="329.4117647058824" viewBox="0, 0, 400,329.4117647058824"><g id="svgg"><path id="path0" d="M334.889 18.247 C 288.136 34.883,216.610 101.770,157.164 184.446 C 148.737 196.166,150.374 196.354,141.178 182.606 C 131.354 167.920,119.206 155.105,111.440 151.235 C 96.260 143.670,73.015 151.183,63.999 166.567 C 59.984 173.419,60.571 174.494,68.388 174.610 C 84.135 174.843,95.655 191.071,116.477 242.353 C 142.213 305.737,143.399 305.756,176.902 243.283 C 220.832 161.367,250.235 122.492,324.092 48.674 C 352.020 20.760,352.458 20.248,350.469 17.792 C 347.891 14.608,344.868 14.696,334.889 18.247 " stroke="none" fill="#000000" fill-rule="evenodd"></path></g></svg>