<svg id="svg" xmlns="http://www.w3.org/2000/svg" xmlns:xlink="http://www.w3.org/1999/xlink" width="400" height="361.90476190476187" viewBox="0, 0, 400,361.90476190476187"><g id="svgg"><path id="path0" d="M28.571 31.422 C 28.571 31.826,58.304 65.929,94.643 107.207 C 130.982 148.485,160.714 182.748,160.714 183.347 C 160.714 183.946,153.317 192.625,144.275 202.634 C 112.478 237.835,28.376 334.725,29.041 335.390 C 30.239 336.588,53.961 332.357,64.325 329.096 C 94.279 319.673,112.606 305.957,168.663 251.006 C 186.593 233.429,201.857 219.048,202.581 219.048 C 204.479 219.048,218.196 231.557,248.040 260.507 C 294.991 306.050,314.469 320.145,342.818 329.088 C 353.143 332.345,376.900 336.592,378.097 335.395 C 378.463 335.029,348.988 300.907,312.596 259.569 C 276.204 218.231,246.429 183.919,246.429 183.320 C 246.429 182.229,343.517 70.814,366.564 45.456 C 380.733 29.867,380.674 30.378,368.042 32.774 C 328.749 40.228,301.141 57.798,244.643 111.307 C 228.929 126.190,213.081 140.960,209.426 144.128 L 202.780 149.890 192.164 140.187 C 186.325 134.851,173.780 122.891,164.286 113.609 C 119.370 69.695,95.217 51.717,66.168 40.574 C 53.346 35.656,28.571 29.625,28.571 31.422 " stroke="none" fill="#000000" fill-rule="evenodd"></path></g></svg>