<svg id="svg" xmlns="http://www.w3.org/2000/svg" xmlns:xlink="http://www.w3.org/1999/xlink" width="400" height="388.0239520958084" viewBox="0, 0, 400,388.0239520958084"><g id="svgg"><path id="path0" d="M179.456 54.906 C 169.099 65.264,169.551 79.012,180.614 90.075 L 188.773 98.235 178.117 145.427 C 167.968 190.371,166.345 196.116,164.447 193.812 C 163.995 193.263,157.118 174.491,149.166 152.096 L 134.707 111.377 141.502 105.020 C 159.641 88.048,148.671 60.778,123.966 61.426 C 98.872 62.084,91.773 98.176,114.857 107.738 C 118.871 109.400,122.078 111.977,121.982 113.464 C 120.389 138.274,113.295 196.684,111.883 196.618 C 109.760 196.519,71.856 139.914,71.856 136.842 C 71.856 135.760,73.991 132.942,76.600 130.581 C 93.156 115.598,76.310 85.457,53.746 89.690 C 25.940 94.906,28.738 138.922,56.875 138.922 C 64.975 138.922,76.820 232.031,76.723 294.938 L 76.647 344.366 86.826 345.832 C 143.124 353.940,250.514 353.950,305.988 345.852 L 316.168 344.366 316.168 295.134 C 316.168 268.056,317.219 239.346,318.504 231.334 C 319.790 223.322,323.058 201.677,325.767 183.234 C 332.560 137.001,331.659 139.695,340.912 137.959 C 363.700 133.684,368.053 102.944,347.384 92.256 C 323.699 80.008,299.861 109.264,316.397 130.286 C 319.158 133.796,320.809 138.251,320.067 140.186 C 317.634 146.526,282.441 199.407,281.368 198.334 C 278.420 195.386,272.513 111.557,275.190 110.665 C 297.224 103.320,299.666 71.936,278.880 63.251 C 252.007 52.023,230.011 87.119,252.724 104.984 C 256.001 107.562,258.683 110.543,258.683 111.608 C 258.683 118.137,228.519 195.488,227.306 192.071 C 226.516 189.845,221.242 167.692,215.587 142.843 L 205.305 97.662 212.743 91.841 C 222.216 84.427,224.677 73.039,219.269 61.643 C 211.987 46.296,191.528 42.834,179.456 54.906 M203.750 62.360 C 209.001 65.170,210.063 76.404,205.509 80.958 C 200.955 85.513,189.721 84.450,186.911 79.199 C 180.019 66.322,190.873 55.468,203.750 62.360 M132.738 75.705 C 135.169 76.638,136.527 80.090,136.527 85.338 C 136.527 96.291,127.864 100.926,118.661 94.895 C 104.682 85.736,116.587 69.508,132.738 75.705 M277.724 77.699 C 282.695 83.689,279.822 94.250,272.528 96.800 C 261.114 100.790,250.751 85.536,259.162 77.126 C 263.118 73.169,274.250 73.513,277.724 77.699 M66.587 105.868 C 71.786 111.067,70.059 121.986,63.571 124.942 C 56.758 128.046,45.509 122.449,45.509 115.955 C 45.509 104.844,59.072 98.353,66.587 105.868 M344.431 105.868 C 354.572 116.009,341.480 131.527,329.439 123.638 C 318.742 116.629,322.633 102.994,335.329 102.994 C 338.754 102.994,342.850 104.287,344.431 105.868 M210.529 176.743 C 217.253 206.107,222.754 231.167,222.754 232.431 C 222.754 233.754,212.073 234.731,197.605 234.731 C 176.681 234.731,172.455 234.118,172.455 231.084 C 172.455 227.502,193.220 131.339,195.404 124.807 C 197.248 119.293,197.836 121.312,210.529 176.743 M161.193 232.934 C 160.145 234.823,126.119 235.500,124.287 233.668 C 123.481 232.862,130.326 152.182,131.717 146.108 C 131.867 145.449,138.786 164.311,147.091 188.024 C 155.395 211.737,161.742 231.946,161.193 232.934 M270.502 229.341 C 270.652 234.494,269.818 234.731,251.497 234.731 C 240.958 234.731,232.335 233.885,232.335 232.853 C 232.335 230.842,257.615 154.515,260.272 148.503 C 261.595 145.510,269.994 211.881,270.502 229.341 M100.251 207.896 C 118.125 237.844,118.103 237.557,102.413 236.652 L 89.855 235.928 86.039 215.569 C 78.053 172.960,78.352 175.690,82.112 179.641 C 83.993 181.617,92.155 194.332,100.251 207.896 M310.237 205.335 C 304.631 238.995,305.692 237.126,292.196 237.126 C 276.059 237.126,276.086 236.850,295.392 205.333 C 314.970 173.373,315.560 173.373,310.237 205.335 M289.586 248.258 L 304.425 249.809 303.710 260.472 L 302.994 271.136 197.006 271.496 L 91.018 271.856 91.018 260.624 C 91.018 249.408,91.031 249.390,100.000 248.451 C 115.733 246.806,274.145 246.644,289.586 248.258 M302.395 286.613 C 303.383 287.215,304.192 290.716,304.192 294.393 L 304.192 301.079 282.267 302.635 C 254.080 304.636,136.524 304.629,110.778 302.625 L 91.018 301.086 91.018 293.122 L 91.018 285.158 126.347 284.273 C 167.444 283.244,299.754 285.002,302.395 286.613 M302.994 324.736 C 302.994 334.839,289.968 336.214,195.210 336.114 C 102.299 336.015,92.533 334.924,91.510 324.534 L 90.804 317.365 196.899 317.560 L 302.994 317.756 302.994 324.736 " stroke="none" fill="#000000" fill-rule="evenodd"></path></g></svg>