<?xml version="1.0" encoding="UTF-8" standalone="no"?>
<svg
   id="svg"
   width="400"
   height="481.3008130081301"
   viewBox="0, 0, 400,481.3008130081301"
   version="1.1"
   sodipodi:docname="white-rook-filled.svg"
   inkscape:version="1.2.2 (b0a8486541, 2022-12-01)"
   xmlns:inkscape="http://www.inkscape.org/namespaces/inkscape"
   xmlns:sodipodi="http://sodipodi.sourceforge.net/DTD/sodipodi-0.dtd"
   xmlns="http://www.w3.org/2000/svg"
   xmlns:svg="http://www.w3.org/2000/svg">
  <defs
     id="defs841" />
  <sodipodi:namedview
     id="namedview839"
     pagecolor="#ffffff"
     bordercolor="#000000"
     borderopacity="0.25"
     inkscape:showpageshadow="2"
     inkscape:pageopacity="0.0"
     inkscape:pagecheckerboard="0"
     inkscape:deskcolor="#d1d1d1"
     showgrid="false"
     inkscape:zoom="2.0735473"
     inkscape:cx="200.38125"
     inkscape:cy="240.65041"
     inkscape:window-width="2560"
     inkscape:window-height="1351"
     inkscape:window-x="2871"
     inkscape:window-y="-9"
     inkscape:window-maximized="1"
     inkscape:current-layer="svg" />
  <g
     id="svgg">
    <path
       id="path0"
       d="M60.705 60.705 C 59.512 61.897,58.537 84.580,58.537 111.111 L 58.537 159.350 69.106 159.444 C 78.210 159.526,81.590 162.179,93.496 178.583 L 107.317 197.628 107.317 254.301 L 107.317 310.974 92.364 331.097 C 80.025 347.701,75.760 351.220,67.973 351.220 C 58.608 351.220,58.537 351.366,58.537 370.732 L 58.537 390.244 40.650 390.244 L 22.764 390.244 22.764 419.541 L 22.764 448.839 192.683 447.996 L 362.602 447.154 362.602 419.512 L 362.602 391.870 343.902 390.895 L 325.203 389.919 325.203 370.569 C 325.203 352.525,324.697 351.220,317.695 351.220 C 308.092 351.220,303.035 346.941,288.353 326.394 L 276.423 309.698 276.423 254.687 L 276.423 199.675 291.094 179.512 C 303.424 162.567,307.317 159.350,315.484 159.350 L 325.203 159.350 325.203 108.943 L 325.203 58.537 295.935 58.537 L 266.667 58.537 266.667 73.171 L 266.667 87.805 250.593 87.805 L 234.520 87.805 233.520 73.984 L 232.520 60.163 192.683 59.249 L 152.846 58.336 152.846 73.071 L 152.846 87.805 134.959 87.805 L 117.073 87.805 117.073 73.171 L 117.073 58.537 89.973 58.537 C 75.068 58.537,61.897 59.512,60.705 60.705 M100.178 92.139 L 101.169 107.317 134.959 107.317 L 168.749 107.317 169.741 92.068 L 170.732 76.820 191.788 77.694 C 217.810 78.775,217.886 78.824,217.886 94.501 L 217.886 107.317 250.228 107.317 L 282.570 107.317 283.562 92.167 C 284.522 77.484,284.882 77.008,295.227 76.720 L 305.901 76.423 304.983 108.943 L 304.065 141.463 191.870 141.463 L 79.675 141.463 78.727 112.452 C 77.586 77.535,78.042 76.069,89.877 76.568 C 98.585 76.935,99.251 77.943,100.178 92.139 M281.009 163.415 C 270.283 182.357,271.449 182.114,191.524 182.114 L 117.516 182.114 110.791 172.669 C 107.092 167.474,104.065 162.352,104.065 161.287 C 104.065 160.221,144.395 159.350,193.688 159.350 C 264.446 159.350,282.826 160.205,281.009 163.415 M259.428 254.472 L 260.320 308.943 193.575 308.943 L 126.829 308.943 126.829 253.591 L 126.829 198.239 192.683 199.120 L 258.537 200.000 259.428 254.472 M275.637 337.844 C 285.649 351.387,286.703 351.220,191.328 351.220 C 99.525 351.220,99.099 351.143,109.756 336.486 L 115.447 328.660 192.071 328.557 L 268.696 328.455 275.637 337.844 M305.691 378.862 L 305.691 390.244 191.870 390.244 L 78.049 390.244 78.049 378.862 L 78.049 367.480 191.870 367.480 L 305.691 367.480 305.691 378.862 M339.571 408.478 C 342.622 409.649,344.715 414.281,344.715 419.860 L 344.715 429.268 193.496 429.268 L 42.276 429.268 42.276 419.783 C 42.276 414.566,44.106 409.560,46.341 408.658 C 52.202 406.293,333.428 406.121,339.571 408.478 "
       stroke="none"
       fill="#000000"
       fill-rule="evenodd" />
  </g>
  <path
     style="fill:#fff6d5;stroke-width:0.482265"
     d="m 42.564009,422.10274 c 0.266711,-7.44657 1.009712,-10.5391 2.975877,-12.38621 1.05964,-0.99548 1.792858,-1.08144 13.117182,-1.5377 29.304729,-1.1807 250.796472,-1.21667 273.018832,-0.0443 7.34046,0.38724 7.91387,0.4872 9.08941,1.58444 2.76948,2.58504 3.29721,4.42308 3.48633,12.14267 l 0.17428,7.11341 H 193.37189 42.317867 Z"
     id="path960" />
  <path
     style="fill:#fff6d5;stroke-width:0.482265"
     d="M 78.126985,378.81943 V 367.72732 H 191.70047 305.27396 v 11.09211 11.0921 H 191.70047 78.126985 Z"
     id="path962" />
  <path
     style="fill:#fff6d5;stroke-width:0.482265"
     d="m 125.87125,350.34009 c -11.30209,-0.54274 -17.17079,-1.53667 -19.3123,-3.27076 -2.19631,-1.77847 -1.30727,-3.89243 5.65452,-13.44533 l 3.61478,-4.96017 h 76.34617 76.34618 l 4.31236,5.90775 c 6.18182,8.46883 6.88094,9.59394 6.88094,11.07369 0,2.76465 -4.80255,3.95424 -19.04948,4.71855 -9.99198,0.53605 -123.55263,0.51605 -134.79317,-0.0237 z"
     id="path964" />
  <path
     style="fill:#fff6d5;stroke-width:0.482265"
     d="m 126.83579,253.62641 v -55.26455 l 20.13457,0.32991 c 11.07402,0.18145 40.59159,0.60258 65.59461,0.93584 25.00301,0.33326 45.53298,0.69341 45.62213,0.80035 0.14627,0.17543 1.79993,99.05872 1.76749,105.68997 l -0.0136,2.77302 H 193.3884 126.83579 Z"
     id="path966" />
  <path
     style="fill:#fff6d5;stroke-width:0.482265"
     d="m 113.33666,175.7402 c -2.47057,-3.47324 -5.55558,-8.08471 -6.85559,-10.24772 l -2.36365,-3.93275 1.59331,-0.33323 c 8.90777,-1.863 147.11992,-2.1956 165.56353,-0.39842 5.76135,0.5614 9.40417,1.36043 9.40417,2.06275 0,0.94112 -4.35145,7.94901 -6.33519,10.20266 -3.5719,4.05788 -8.36288,6.08301 -17.29581,7.31084 -8.15322,1.12067 -35.36318,1.62083 -89.0206,1.63633 l -50.19824,0.0145 z"
     id="path968" />
  <path
     style="fill:#fff6d5;stroke-width:0.482265"
     d="m 79.866717,138.04845 c -0.372277,-4.21683 -1.26588,-35.32261 -1.257292,-43.765576 0.0076,-7.502163 0.577153,-12.320292 1.716814,-14.524154 1.155937,-2.235336 2.938766,-2.837398 8.402125,-2.837398 7.133511,0 9.146443,1.143879 10.190569,5.790944 0.415173,1.847801 1.862847,19.667154 1.870807,23.027644 l 0.004,1.5706 34.12027,-0.1238 34.12027,-0.1238 0.93988,-15.056537 0.93988,-15.056534 3.40051,0.227868 c 1.87028,0.125327 9.04301,0.453726 15.93941,0.729776 21.85035,0.874628 25.01307,1.666152 26.69744,6.681483 0.34577,1.029568 0.55055,5.560223 0.55055,12.180571 v 10.541243 l 32.67348,-0.12394 32.67347,-0.12393 0.58341,-9.404178 c 0.95678,-15.422646 1.63932,-18.467231 4.43952,-19.803089 0.89198,-0.425526 16.26133,-1.456101 17.72482,-1.188519 0.0447,0.0082 -0.32961,14.012208 -0.8318,31.120076 -0.50219,17.10787 -0.91855,31.59351 -0.92524,32.19032 l -0.0122,1.08509 H 191.97999 80.132818 Z"
     id="path970" />
</svg>
