<svg id="svg" xmlns="http://www.w3.org/2000/svg" xmlns:xlink="http://www.w3.org/1999/xlink" width="400" height="481.3008130081301" viewBox="0, 0, 400,481.3008130081301"><g id="svgg"><path id="path0" d="M60.705 60.705 C 59.512 61.897,58.537 84.580,58.537 111.111 L 58.537 159.350 69.106 159.444 C 78.210 159.526,81.590 162.179,93.496 178.583 L 107.317 197.628 107.317 254.301 L 107.317 310.974 92.364 331.097 C 80.025 347.701,75.760 351.220,67.973 351.220 C 58.608 351.220,58.537 351.366,58.537 370.732 L 58.537 390.244 40.650 390.244 L 22.764 390.244 22.764 419.541 L 22.764 448.839 192.683 447.996 L 362.602 447.154 362.602 419.512 L 362.602 391.870 343.902 390.895 L 325.203 389.919 325.203 370.569 C 325.203 352.525,324.697 351.220,317.695 351.220 C 308.092 351.220,303.035 346.941,288.353 326.394 L 276.423 309.698 276.423 254.687 L 276.423 199.675 291.094 179.512 C 303.424 162.567,307.317 159.350,315.484 159.350 L 325.203 159.350 325.203 108.943 L 325.203 58.537 295.935 58.537 L 266.667 58.537 266.667 73.171 L 266.667 87.805 250.593 87.805 L 234.520 87.805 233.520 73.984 L 232.520 60.163 192.683 59.249 L 152.846 58.336 152.846 73.071 L 152.846 87.805 134.959 87.805 L 117.073 87.805 117.073 73.171 L 117.073 58.537 89.973 58.537 C 75.068 58.537,61.897 59.512,60.705 60.705 M100.178 92.139 L 101.169 107.317 134.959 107.317 L 168.749 107.317 169.741 92.068 L 170.732 76.820 191.788 77.694 C 217.810 78.775,217.886 78.824,217.886 94.501 L 217.886 107.317 250.228 107.317 L 282.570 107.317 283.562 92.167 C 284.522 77.484,284.882 77.008,295.227 76.720 L 305.901 76.423 304.983 108.943 L 304.065 141.463 191.870 141.463 L 79.675 141.463 78.727 112.452 C 77.586 77.535,78.042 76.069,89.877 76.568 C 98.585 76.935,99.251 77.943,100.178 92.139 M281.009 163.415 C 270.283 182.357,271.449 182.114,191.524 182.114 L 117.516 182.114 110.791 172.669 C 107.092 167.474,104.065 162.352,104.065 161.287 C 104.065 160.221,144.395 159.350,193.688 159.350 C 264.446 159.350,282.826 160.205,281.009 163.415 M259.428 254.472 L 260.320 308.943 193.575 308.943 L 126.829 308.943 126.829 253.591 L 126.829 198.239 192.683 199.120 L 258.537 200.000 259.428 254.472 M275.637 337.844 C 285.649 351.387,286.703 351.220,191.328 351.220 C 99.525 351.220,99.099 351.143,109.756 336.486 L 115.447 328.660 192.071 328.557 L 268.696 328.455 275.637 337.844 M305.691 378.862 L 305.691 390.244 191.870 390.244 L 78.049 390.244 78.049 378.862 L 78.049 367.480 191.870 367.480 L 305.691 367.480 305.691 378.862 M339.571 408.478 C 342.622 409.649,344.715 414.281,344.715 419.860 L 344.715 429.268 193.496 429.268 L 42.276 429.268 42.276 419.783 C 42.276 414.566,44.106 409.560,46.341 408.658 C 52.202 406.293,333.428 406.121,339.571 408.478 " stroke="none" fill="#000000" fill-rule="evenodd"></path></g></svg>