<svg id="svg" xmlns="http://www.w3.org/2000/svg" xmlns:xlink="http://www.w3.org/1999/xlink" width="400" height="540" viewBox="0, 0, 400,540"><g id="svgg"><path id="path0" d="M143.322 28.107 C 114.111 43.538,100.157 87.115,113.104 122.479 C 115.751 129.709,114.410 131.318,104.002 133.400 C 60.406 142.119,60.871 202.644,104.603 211.588 C 115.531 213.823,118.195 216.559,120.523 227.941 C 123.087 240.478,130.584 249.528,141.388 253.129 C 158.654 258.885,125.915 379.507,105.675 384.710 C 90.848 388.522,81.214 398.480,79.365 411.904 C 78.238 420.079,75.074 422.305,61.240 424.654 C 29.152 430.104,12.000 452.198,12.000 488.081 L 12.000 504.000 182.000 504.000 L 352.000 504.000 352.000 487.263 C 352.000 452.721,333.240 429.520,301.124 424.343 C 288.383 422.289,285.802 420.194,284.743 411.041 C 283.342 398.931,267.048 384.000,255.236 384.000 C 231.775 384.000,208.275 258.626,229.890 248.778 C 235.632 246.162,240.804 239.602,242.224 233.136 C 246.549 213.431,247.588 212.000,257.568 212.000 C 301.468 212.000,303.526 142.105,259.883 133.377 C 250.460 131.492,248.222 129.393,250.367 124.456 C 279.066 58.423,207.638 -5.867,143.322 28.107 M215.618 50.292 C 236.987 68.273,239.841 104.286,221.501 124.551 C 215.888 130.754,208.802 132.000,179.155 132.000 L 143.550 132.000 135.407 113.590 C 112.545 61.908,172.858 14.312,215.618 50.292 M260.263 156.141 C 265.209 158.788,268.000 164.508,268.000 172.000 C 268.000 190.093,259.634 192.000,180.263 192.000 C 105.733 192.000,92.000 188.888,92.000 172.000 C 92.000 153.591,231.016 140.488,260.263 156.141 M218.708 218.404 C 223.409 230.654,165.090 238.900,148.417 228.342 C 133.371 218.815,147.377 212.000,182.000 212.000 C 209.715 212.000,216.720 213.222,218.708 218.404 M200.570 290.498 C 202.772 321.763,209.437 354.243,218.497 377.852 C 220.519 383.123,215.308 384.000,181.961 384.000 C 146.749 384.000,143.275 383.337,145.264 377.000 C 156.710 340.540,160.648 320.673,162.748 288.799 L 165.199 251.599 181.600 252.799 L 198.000 254.000 200.570 290.498 M253.673 406.428 C 278.830 416.081,258.136 420.000,182.000 420.000 C 117.373 420.000,104.000 419.028,104.000 414.333 C 104.000 411.217,106.250 407.759,109.000 406.649 C 116.215 403.738,246.145 403.539,253.673 406.428 M315.476 454.000 C 319.705 458.400,324.373 466.050,325.852 471.000 L 328.539 480.000 182.000 480.000 L 35.461 480.000 38.220 471.000 C 46.235 444.855,49.869 444.224,186.894 445.167 C 301.977 445.960,308.158 446.385,315.476 454.000 " stroke="none" fill="#000000" fill-rule="evenodd"></path></g></svg>