<?xml version="1.0" encoding="UTF-8" standalone="no"?>
<svg
   id="svg"
   width="400"
   height="388.0239520958084"
   viewBox="0, 0, 400,388.0239520958084"
   version="1.1"
   sodipodi:docname="white-queen-filled.svg"
   inkscape:version="1.2.2 (b0a8486541, 2022-12-01)"
   xmlns:inkscape="http://www.inkscape.org/namespaces/inkscape"
   xmlns:sodipodi="http://sodipodi.sourceforge.net/DTD/sodipodi-0.dtd"
   xmlns="http://www.w3.org/2000/svg"
   xmlns:svg="http://www.w3.org/2000/svg">
  <defs
     id="defs1296" />
  <sodipodi:namedview
     id="namedview1294"
     pagecolor="#ffffff"
     bordercolor="#000000"
     borderopacity="0.25"
     inkscape:showpageshadow="2"
     inkscape:pageopacity="0.0"
     inkscape:pagecheckerboard="0"
     inkscape:deskcolor="#d1d1d1"
     showgrid="false"
     inkscape:zoom="2.5720061"
     inkscape:cx="200.0384"
     inkscape:cy="194.01198"
     inkscape:window-width="2560"
     inkscape:window-height="1351"
     inkscape:window-x="2871"
     inkscape:window-y="-9"
     inkscape:window-maximized="1"
     inkscape:current-layer="svg" />
  <g
     id="svgg">
    <path
       id="path0"
       d="M179.456 54.906 C 169.099 65.264,169.551 79.012,180.614 90.075 L 188.773 98.235 178.117 145.427 C 167.968 190.371,166.345 196.116,164.447 193.812 C 163.995 193.263,157.118 174.491,149.166 152.096 L 134.707 111.377 141.502 105.020 C 159.641 88.048,148.671 60.778,123.966 61.426 C 98.872 62.084,91.773 98.176,114.857 107.738 C 118.871 109.400,122.078 111.977,121.982 113.464 C 120.389 138.274,113.295 196.684,111.883 196.618 C 109.760 196.519,71.856 139.914,71.856 136.842 C 71.856 135.760,73.991 132.942,76.600 130.581 C 93.156 115.598,76.310 85.457,53.746 89.690 C 25.940 94.906,28.738 138.922,56.875 138.922 C 64.975 138.922,76.820 232.031,76.723 294.938 L 76.647 344.366 86.826 345.832 C 143.124 353.940,250.514 353.950,305.988 345.852 L 316.168 344.366 316.168 295.134 C 316.168 268.056,317.219 239.346,318.504 231.334 C 319.790 223.322,323.058 201.677,325.767 183.234 C 332.560 137.001,331.659 139.695,340.912 137.959 C 363.700 133.684,368.053 102.944,347.384 92.256 C 323.699 80.008,299.861 109.264,316.397 130.286 C 319.158 133.796,320.809 138.251,320.067 140.186 C 317.634 146.526,282.441 199.407,281.368 198.334 C 278.420 195.386,272.513 111.557,275.190 110.665 C 297.224 103.320,299.666 71.936,278.880 63.251 C 252.007 52.023,230.011 87.119,252.724 104.984 C 256.001 107.562,258.683 110.543,258.683 111.608 C 258.683 118.137,228.519 195.488,227.306 192.071 C 226.516 189.845,221.242 167.692,215.587 142.843 L 205.305 97.662 212.743 91.841 C 222.216 84.427,224.677 73.039,219.269 61.643 C 211.987 46.296,191.528 42.834,179.456 54.906 M203.750 62.360 C 209.001 65.170,210.063 76.404,205.509 80.958 C 200.955 85.513,189.721 84.450,186.911 79.199 C 180.019 66.322,190.873 55.468,203.750 62.360 M132.738 75.705 C 135.169 76.638,136.527 80.090,136.527 85.338 C 136.527 96.291,127.864 100.926,118.661 94.895 C 104.682 85.736,116.587 69.508,132.738 75.705 M277.724 77.699 C 282.695 83.689,279.822 94.250,272.528 96.800 C 261.114 100.790,250.751 85.536,259.162 77.126 C 263.118 73.169,274.250 73.513,277.724 77.699 M66.587 105.868 C 71.786 111.067,70.059 121.986,63.571 124.942 C 56.758 128.046,45.509 122.449,45.509 115.955 C 45.509 104.844,59.072 98.353,66.587 105.868 M344.431 105.868 C 354.572 116.009,341.480 131.527,329.439 123.638 C 318.742 116.629,322.633 102.994,335.329 102.994 C 338.754 102.994,342.850 104.287,344.431 105.868 M210.529 176.743 C 217.253 206.107,222.754 231.167,222.754 232.431 C 222.754 233.754,212.073 234.731,197.605 234.731 C 176.681 234.731,172.455 234.118,172.455 231.084 C 172.455 227.502,193.220 131.339,195.404 124.807 C 197.248 119.293,197.836 121.312,210.529 176.743 M161.193 232.934 C 160.145 234.823,126.119 235.500,124.287 233.668 C 123.481 232.862,130.326 152.182,131.717 146.108 C 131.867 145.449,138.786 164.311,147.091 188.024 C 155.395 211.737,161.742 231.946,161.193 232.934 M270.502 229.341 C 270.652 234.494,269.818 234.731,251.497 234.731 C 240.958 234.731,232.335 233.885,232.335 232.853 C 232.335 230.842,257.615 154.515,260.272 148.503 C 261.595 145.510,269.994 211.881,270.502 229.341 M100.251 207.896 C 118.125 237.844,118.103 237.557,102.413 236.652 L 89.855 235.928 86.039 215.569 C 78.053 172.960,78.352 175.690,82.112 179.641 C 83.993 181.617,92.155 194.332,100.251 207.896 M310.237 205.335 C 304.631 238.995,305.692 237.126,292.196 237.126 C 276.059 237.126,276.086 236.850,295.392 205.333 C 314.970 173.373,315.560 173.373,310.237 205.335 M289.586 248.258 L 304.425 249.809 303.710 260.472 L 302.994 271.136 197.006 271.496 L 91.018 271.856 91.018 260.624 C 91.018 249.408,91.031 249.390,100.000 248.451 C 115.733 246.806,274.145 246.644,289.586 248.258 M302.395 286.613 C 303.383 287.215,304.192 290.716,304.192 294.393 L 304.192 301.079 282.267 302.635 C 254.080 304.636,136.524 304.629,110.778 302.625 L 91.018 301.086 91.018 293.122 L 91.018 285.158 126.347 284.273 C 167.444 283.244,299.754 285.002,302.395 286.613 M302.994 324.736 C 302.994 334.839,289.968 336.214,195.210 336.114 C 102.299 336.015,92.533 334.924,91.510 324.534 L 90.804 317.365 196.899 317.560 L 302.994 317.756 302.994 324.736 "
       stroke="none"
       fill="#000000"
       fill-rule="evenodd" />
  </g>
  <path
     style="fill:#fff6d5;stroke-width:0.388802"
     d="m 161.54705,335.6842 c -44.73984,-0.36064 -57.57364,-1.24253 -64.71396,-4.44692 -2.682223,-1.20371 -4.088964,-2.63545 -4.675596,-4.75869 -0.376796,-1.36377 -1.256505,-8.68434 -1.066433,-8.87441 0.04904,-0.049 47.720809,0.013 105.937259,0.13784 l 105.84809,0.227 -0.002,3.72894 c -0.003,4.85671 -0.42669,6.28586 -2.35347,7.93511 -4.84634,4.14842 -18.44558,5.58616 -55.96443,5.9167 -41.64047,0.36684 -52.07905,0.38375 -83.00913,0.13443 z"
     id="path1415" />
  <path
     style="fill:#fff6d5;stroke-width:0.388802"
     d="m 144.05098,303.60126 c -14.0459,-0.24117 -29.81471,-0.92427 -41.11577,-1.7811 l -11.566844,-0.87699 v -7.81622 -7.81621 l 10.206044,-0.2563 c 5.61332,-0.14096 20.162,-0.44628 32.33039,-0.67847 40.88187,-0.78011 162.3592,0.89908 167.66331,2.31762 1.67187,0.44713 2.18149,2.45301 2.23467,8.7956 l 0.0456,5.44322 -12.05285,0.84807 c -21.58699,1.51893 -31.99898,1.73859 -87.28595,1.84147 -29.40312,0.0547 -56.60951,0.0454 -60.45864,-0.0207 z"
     id="path1417" />
  <path
     style="fill:#fff6d5;stroke-width:0.388802"
     d="m 91.441305,261.69403 c 0.121178,-9.86075 0.123675,-9.88621 1.068143,-10.89081 0.520675,-0.55383 1.570439,-1.17215 2.33281,-1.37406 5.490712,-1.45416 32.551952,-1.94842 106.168152,-1.9391 65.54873,0.008 82.00127,0.28438 94.57598,1.58707 l 8.45643,0.87605 v 1.57063 c 0,2.49716 -1.22638,19.06224 -1.42667,19.27041 -0.18878,0.19621 -116.28172,0.68862 -176.57151,0.74893 l -34.724798,0.0347 z"
     id="path1419" />
  <path
     style="fill:#fff6d5;stroke-width:0.388802"
     d="m 241.44444,234.26999 c -4.17691,-0.29036 -8.94111,-1.03528 -8.94111,-1.398 0,-1.12821 20.50878,-63.49798 25.67305,-78.07496 1.38702,-3.91507 2.14933,-5.59519 2.36435,-5.21097 1.78644,3.19219 9.66556,67.76012 9.67414,79.27779 0.003,3.50264 -0.54485,4.44857 -2.9138,5.03457 -2.04963,0.50702 -20.16372,0.76733 -25.85663,0.37157 z"
     id="path1421" />
  <path
     style="fill:#fff6d5;stroke-width:0.388802"
     d="m 182.15353,234.27287 c -5.72011,-0.34797 -7.91821,-0.83218 -8.94915,-1.97136 -0.69421,-0.76709 -0.67438,-0.98939 0.73714,-8.26367 4.7382,-24.41847 20.0774,-94.46986 21.70426,-99.11953 0.27753,-0.79321 0.67861,-1.49305 0.89128,-1.5552 1.19383,-0.34893 3.8904,10.11265 13.80082,53.5416 7.32169,32.08475 12.05661,53.67921 12.05661,54.98638 0,0.97178 -1.47274,1.39603 -6.80403,1.96002 -5.08781,0.53823 -26.98254,0.8144 -33.43693,0.42176 z"
     id="path1423" />
  <path
     style="fill:#fff6d5;stroke-width:0.388802"
     d="m 128.86416,234.29255 c -1.93753,-0.16032 -3.75196,-0.43314 -4.03208,-0.60626 -0.61432,-0.37967 -0.48154,-3.17522 1.16417,-24.51105 2.07959,-26.96096 5.1674,-59.96481 5.74314,-61.38508 0.33826,-0.83445 3.45323,7.32963 11.99862,31.44736 8.95433,25.27187 17.22584,50.75296 17.22584,53.06567 0,0.84513 -0.73224,1.05143 -5.51173,1.55292 -4.89398,0.51351 -22.21968,0.79791 -26.58796,0.43644 z"
     id="path1425" />
  <path
     style="fill:#fff6d5;stroke-width:0.388802"
     d="m 95.839584,236.11839 c -2.993772,-0.19458 -5.552604,-0.4752 -5.686294,-0.62361 -0.254995,-0.28307 -8.839625,-46.07057 -9.882864,-52.71183 -0.331917,-2.11299 -0.550375,-4.11758 -0.485462,-4.45465 0.390957,-2.03008 8.149902,9.48682 21.960326,32.59655 11.91497,19.93795 13.51381,23.7225 10.66585,25.24668 -0.90695,0.48539 -8.66849,0.4605 -16.571556,-0.0531 z"
     id="path1427" />
  <path
     style="fill:#fff6d5;stroke-width:0.388802"
     d="m 284.32923,236.58418 c -4.62322,-0.96324 -4.75616,-2.8794 -0.73929,-10.65624 5.14882,-9.96833 23.14627,-38.86754 26.55541,-42.64105 3.78539,-4.18997 3.6711,-0.76234 -0.88467,26.53043 -2.76311,16.55329 -3.54346,20.09584 -5.12487,23.26518 -1.72226,3.45162 -2.39816,3.6837 -10.97943,3.76992 -3.95606,0.0397 -7.92827,-0.081 -8.82715,-0.26824 z"
     id="path1429" />
  <path
     style="fill:#fff6d5;stroke-width:0.388802"
     d="m 334.42056,125.33763 c -4.11412,-0.75839 -7.9013,-3.6734 -9.81022,-7.55097 -1.09974,-2.23388 -1.21257,-2.77273 -1.03746,-4.95433 0.22874,-2.84958 0.92829,-4.381 2.85679,-6.25394 2.44457,-2.37413 4.51024,-3.11792 8.71727,-3.13882 4.556,-0.0226 7.28584,0.854 9.39516,3.01709 2.2137,2.27013 3.20927,4.65708 3.19202,7.65311 -0.0254,4.40377 -2.42607,8.13259 -6.47739,10.06078 -2.78198,1.32406 -4.4447,1.60792 -6.83617,1.16708 z"
     id="path1431" />
  <path
     style="fill:#fff6d5;stroke-width:0.388802"
     d="m 266.01268,96.802422 c -4.94373,-1.365836 -8.93327,-5.976122 -9.64124,-11.141361 -0.50126,-3.657083 1.7264,-8.02967 4.92114,-9.659503 2.45817,-1.254065 6.33005,-1.73788 9.53317,-1.191225 3.89882,0.665388 6.31946,2.148449 7.76432,4.75699 1.02405,1.848825 1.15265,2.449725 1.15265,5.385818 0,2.753518 -0.16991,3.667142 -1.01859,5.476846 -2.45971,5.245087 -7.55193,7.797889 -12.71145,6.372435 z"
     id="path1433" />
  <path
     style="fill:#fff6d5;stroke-width:0.388802"
     d="m 194.01198,83.264618 c -2.42795,-0.560852 -4.93421,-1.76884 -5.91106,-2.849069 -2.45294,-2.712516 -3.72871,-9.182435 -2.51374,-12.748166 1.90021,-5.576809 7.76157,-8.345629 14.05865,-6.641089 3.79843,1.028186 5.72735,2.430994 7.05187,5.128463 1.01447,2.066057 1.11673,2.648145 1.11673,6.356734 0,3.515285 -0.12869,4.343829 -0.9264,5.964161 -1.97045,4.002477 -7.45315,6.041645 -12.87605,4.788966 z"
     id="path1435" />
  <path
     style="fill:#fff6d5;stroke-width:0.388802"
     d="m 123.4445,96.872968 c -6.17831,-2.051767 -10.67867,-6.953171 -10.68825,-11.640714 -0.0127,-6.215741 6.87475,-11.377728 14.18149,-10.62871 7.24602,0.742795 9.28913,3.113456 9.25467,10.738398 -0.0239,5.287963 -2.03759,9.261877 -5.63625,11.122816 -1.62345,0.839518 -5.1955,1.044554 -7.11166,0.40821 z"
     id="path1437" />
  <path
     style="fill:#fff6d5;stroke-width:0.388802"
     d="m 56.13857,125.20293 c -3.097224,-0.67937 -5.275857,-1.81815 -7.552571,-3.94775 -2.344144,-2.19267 -2.838521,-3.40099 -2.642074,-6.45759 0.613332,-9.54311 12.466434,-15.38009 19.484641,-9.59509 3.069333,2.53 4.518172,6.86781 3.725698,11.1547 -1.282232,6.93623 -6.2693,10.32554 -13.015694,8.84573 z"
     id="path1439" />
</svg>
